<?xml version="1.0" encoding="UTF-8"?>
<svg width="40px" height="40px" viewBox="0 0 40 40" version="1.1" xmlns="http://www.w3.org/2000/svg" xmlns:xlink="http://www.w3.org/1999/xlink">
    <!-- Generator: Sketch 48.2 (47327) - http://www.bohemiancoding.com/sketch -->
    <title>Group</title>
    <desc>Created with Sketch.</desc>
    <defs></defs>
    <g id="102_Storytelling-Toronto---Home-Copy-2" stroke="none" stroke-width="1" fill="none" fill-rule="evenodd" transform="translate(-607.000000, -2077.000000)">
        <g id="Group-15" transform="translate(271.000000, 2077.000000)" fill-rule="nonzero">
            <g id="Group" transform="translate(336.000000, 0.000000)">
                <path d="M28.3925,12.055 C27.6025,12.055 26.87,11.78625 26.3625,11.44875 L26.02375,12.39375 C26.5175,12.74625 27.36375,13 28.18,13.01375 L28.18,14.4375 L29.06875,14.4375 L29.06875,12.9725 C30.52,12.7325 31.295,11.69 31.295,10.57625 C31.295,9.32125 30.5625,8.58875 29.11125,7.9975 C27.885,7.49 27.36375,7.12375 27.36375,6.39125 C27.36375,5.8275 27.77125,5.17875 28.8575,5.17875 C29.76,5.17875 30.3375,5.49 30.63375,5.6575 L30.98625,4.7275 C30.5775,4.4875 29.99875,4.2625 29.15375,4.23375 L29.15375,2.865 L28.28,2.865 L28.28,4.28875 C26.9825,4.5 26.15,5.38875 26.15,6.5575 C26.15,7.78375 27.03875,8.4325 28.47625,8.99625 C29.51875,9.41875 30.06875,9.89875 30.06875,10.67375 C30.06875,11.47625 29.3925,12.055 28.3925,12.055 Z" id="Shape" fill="#000000"></path>
                <path d="M11.15875,27.185 C14.1925,27.185 16.6525,24.725 16.6525,21.69125 C16.6525,18.6575 14.1925,16.1975 11.15875,16.1975 C8.125,16.1975 5.665,18.6575 5.665,21.69125 C5.665,24.725 8.125,27.185 11.15875,27.185 Z M11.15875,17.4475 C13.49875,17.4475 15.4025,19.35125 15.4025,21.69125 C15.4025,24.03125 13.49875,25.935 11.15875,25.935 C8.81875,25.935 6.915,24.03125 6.915,21.69125 C6.915,19.35125 8.81875,17.4475 11.15875,17.4475 Z" id="Shape" fill="#000000"></path>
                <path d="M5.59125,28.44625 C5.59125,28.44625 0.02375,28.52 0.02375,33.6425 C0.02375,38.765 0.02375,39.9525 0.02375,39.9525 C0.02375,39.9525 10.8625,39.9525 10.9,39.9525 L5.59125,28.44625 Z M1.2725,33.64375 C1.2725,30.77625 3.5575,29.99125 4.8275,29.7775 L8.945,38.705 L1.2725,38.705 L1.2725,33.64375 Z" id="Shape" fill="#000000"></path>
                <path d="M22.295,39.95375 C22.295,39.95375 22.295,38.76625 22.295,33.64375 C22.295,28.52125 16.7275,28.4475 16.7275,28.4475 L11.41875,39.955 L22.295,39.955 L22.295,39.95375 Z M17.49,29.77625 C18.76,29.99125 21.045,30.775 21.045,33.6425 L21.045,38.7025 L13.3725,38.7025 L17.49,29.77625 Z" id="Shape" fill="#000000"></path>
                <polygon id="Shape" stroke="#000000" points="11.15875 28.44625 7.33625 28.44625 11.15875 36.91 14.9825 28.44625"></polygon>
                <path d="M20.51875,17.52 L21.20625,17.52 L21.24625,24.06375 L28.36875,17.52 L36.79875,17.52 C38.55,17.52 39.97625,16.095 39.97625,14.3425 L39.97625,3.1775 C39.97625,1.425 38.55125,0 36.79875,0 L20.51875,0 C18.7675,0 17.3425,1.425 17.3425,3.1775 L17.3425,14.3425 C17.3425,16.09375 18.7675,17.52 20.51875,17.52 Z M18.5925,3.1775 C18.5925,2.115 19.45625,1.25 20.51875,1.25 L36.79875,1.25 C37.8625,1.25 38.72625,2.115 38.72625,3.1775 L38.72625,14.3425 C38.72625,15.405 37.8625,16.27 36.79875,16.27 L27.8825,16.27 L22.47875,21.235 L22.44875,16.27 L20.51875,16.27 C19.45625,16.27 18.5925,15.40625 18.5925,14.3425 L18.5925,3.1775 Z" id="Shape" fill="#000000"></path>
            </g>
        </g>
    </g>
</svg>