<?xml version="1.0" encoding="UTF-8"?>
<svg width="40px" height="38px" viewBox="0 0 40 38" version="1.1" xmlns="http://www.w3.org/2000/svg" xmlns:xlink="http://www.w3.org/1999/xlink">
    <!-- Generator: Sketch 48.2 (47327) - http://www.bohemiancoding.com/sketch -->
    <title>noun_73834</title>
    <desc>Created with Sketch.</desc>
    <defs></defs>
    <g id="102_Storytelling-Toronto---Home-Copy-2" stroke="none" stroke-width="1" fill="none" fill-rule="evenodd" transform="translate(-271.000000, -2079.000000)">
        <g id="Group-15" transform="translate(271.000000, 2077.000000)" fill="#000000" fill-rule="nonzero">
            <g id="noun_73834" transform="translate(0.000000, 2.000000)">
                <path d="M40,19.4666667 C40,19.2888889 40,19.1555556 40,18.9777778 C40,18.8 40,18.6666667 40,18.4888889 L37.6888889,18.4888889 C37.6888889,17.9555556 37.6444444,17.4222222 37.6,16.8888889 L39.9111111,16.8888889 C39.8666667,16.5777778 39.8222222,16.2666667 39.7777778,15.9111111 L37.5111111,15.9111111 C37.4222222,15.3777778 37.3333333,14.8444444 37.2,14.3111111 L39.4666667,14.3111111 C39.3777778,14 39.2888889,13.6444444 39.1555556,13.3333333 L36.9333333,13.3333333 C36.7555556,12.8 36.5777778,12.2666667 36.3555556,11.7333333 L38.5777778,11.7333333 C38.4444444,11.4222222 38.2666667,11.0666667 38.0888889,10.7555556 L35.9111111,10.7555556 C35.6444444,10.2222222 35.3333333,9.68888889 35.0222222,9.15555556 L37.1555556,9.15555556 C36.9333333,8.8 36.7111111,8.48888889 36.4444444,8.17777778 L34.3555556,8.17777778 C33.9555556,7.6 33.5555556,7.06666667 33.1111111,6.57777778 L35.1111111,6.57777778 C34.8,6.22222222 34.4444444,5.91111111 34.0888889,5.6 L32.1777778,5.6 C31.6,5.02222222 30.9777778,4.48888889 30.3111111,4 L32.0888889,4 C31.6,3.64444444 31.0666667,3.33333333 30.5333333,3.02222222 L28.8888889,3.02222222 C27.7333333,2.31111111 26.6666667,1.77777778 25.5111111,1.33333333 L27.3777778,1.33333333 C25.1111111,0.755555556 23.3333333,0.311111111 20.2666667,0.177777778 C19.7777778,0.133333333 19.3333333,0.133333333 18.8444444,0.133333333 C8.44444444,0.133333333 0,8.57777778 0,18.9777778 C0,29.3777778 8.44444444,37.8222222 18.8444444,37.8222222 C19.1555556,37.8222222 19.4666667,37.8222222 19.7777778,37.7777778 C19.6888889,37.7777778 19.8666667,37.7777778 19.7777778,37.7777778 C24.1777778,37.6888889 25.1111111,37.2 27.9555556,36.5777778 L25.5111111,36.5777778 C26.6666667,36.1333333 27.7333333,35.6 28.7555556,34.9777778 L30.4,34.9777778 C30.9333333,34.6666667 31.4666667,34.3555556 31.9555556,34 L30.1777778,34 C30.8444444,33.5111111 31.4666667,32.9777778 32.0444444,32.4 L33.9555556,32.4 C34.3111111,32.0888889 34.6222222,31.7333333 34.9777778,31.4222222 L32.9777778,31.4222222 C33.4222222,30.9333333 33.8666667,30.4 34.2222222,29.8222222 L36.3111111,29.8222222 C36.5333333,29.5111111 36.8,29.1555556 37.0222222,28.8444444 L34.8888889,28.8444444 C35.2,28.3111111 35.5111111,27.7777778 35.7777778,27.2444444 L37.9555556,27.2444444 C38.1333333,26.9333333 38.2666667,26.5777778 38.4444444,26.2666667 L36.2222222,26.2666667 C36.4444444,25.7333333 36.6222222,25.2 36.8,24.6666667 L39.0222222,24.6666667 C39.1111111,24.3555556 39.2444444,24 39.3333333,23.6888889 L37.0666667,23.6888889 C37.2,23.1555556 37.2888889,22.6222222 37.3777778,22.0888889 L39.6444444,22.0888889 C39.6888889,21.7333333 39.7333333,21.4222222 39.7777778,21.1111111 L37.4666667,21.1111111 C37.5111111,20.5777778 37.5555556,20.0444444 37.5555556,19.5111111 L40,19.5111111 L40,19.4666667 Z M18.8444444,36.5777778 C9.15555556,36.5777778 1.24444444,28.6666667 1.24444444,18.9777778 C1.24444444,9.28888889 9.15555556,1.37777778 18.8444444,1.37777778 C28.5333333,1.37777778 36.4444444,9.24444444 36.4444444,18.9777778 C36.4444444,28.6666667 28.5333333,36.5777778 18.8444444,36.5777778 Z" id="Shape"></path>
                <path d="M8.17777778,10.4 C8.22222222,10.4444444 8.31111111,10.4444444 8.4,10.4444444 C8.44444444,10.4444444 8.48888889,10.4444444 8.53333333,10.4444444 C8.57777778,10.4444444 8.62222222,10.4 8.66666667,10.3555556 L9.37777778,9.82222222 C9.37777778,9.95555556 9.37777778,10.1333333 9.37777778,10.2666667 L9.37777778,13.0666667 L8.13333333,13.0666667 L8.13333333,13.9111111 L11.7777778,13.9111111 L11.7777778,13.0666667 L10.7111111,13.0666667 L10.7111111,8.35555556 L9.6,8.35555556 L7.6,9.82222222 L8.04444444,10.3111111 C8.04444444,10.3555556 8.08888889,10.4 8.17777778,10.4 Z" id="Shape"></path>
                <path d="M17.3333333,9.02222222 C17.1111111,8.8 16.8888889,8.62222222 16.5777778,8.48888889 C16.2666667,8.35555556 15.9555556,8.31111111 15.6444444,8.31111111 C15.2888889,8.31111111 14.9777778,8.35555556 14.7111111,8.48888889 C14.4444444,8.62222222 14.1777778,8.75555556 13.9555556,9.02222222 C13.7333333,9.24444444 13.6,9.55555556 13.4666667,9.91111111 C13.3333333,10.2666667 13.2888889,10.7111111 13.2888889,11.1555556 C13.2888889,11.6444444 13.3333333,12.0444444 13.4666667,12.4 C13.6,12.7555556 13.7333333,13.0666667 13.9555556,13.2888889 C14.1777778,13.5111111 14.4,13.6888889 14.7111111,13.8222222 C14.9777778,13.9555556 15.3333333,14 15.6444444,14 C16,14 16.3111111,13.9555556 16.5777778,13.8222222 C16.8888889,13.6888889 17.1111111,13.5555556 17.3333333,13.2888889 C17.5555556,13.0666667 17.7333333,12.7555556 17.8222222,12.4 C17.9555556,12.0444444 18,11.6444444 18,11.1555556 C18,10.6666667 17.9555556,10.2666667 17.8222222,9.91111111 C17.6888889,9.55555556 17.5555556,9.24444444 17.3333333,9.02222222 Z M16.5333333,12.0888889 C16.4888889,12.3111111 16.4,12.5333333 16.3111111,12.6666667 C16.2222222,12.8 16.1333333,12.8888889 16,12.9777778 C15.8666667,13.0222222 15.7777778,13.0666667 15.6444444,13.0666667 C15.5111111,13.0666667 15.4222222,13.0222222 15.2888889,12.9777778 C15.1555556,12.9333333 15.0666667,12.8444444 14.9777778,12.6666667 C14.8888889,12.5333333 14.8,12.3111111 14.7555556,12.0888889 C14.7111111,11.8666667 14.6666667,11.5555556 14.6666667,11.1555556 C14.6666667,10.7555556 14.7111111,10.4444444 14.7555556,10.2222222 C14.8,9.95555556 14.8888889,9.77777778 14.9777778,9.64444444 C15.0666667,9.51111111 15.1555556,9.42222222 15.2888889,9.37777778 C15.4222222,9.33333333 15.5111111,9.28888889 15.6444444,9.28888889 C15.7777778,9.28888889 15.8666667,9.33333333 16,9.37777778 C16.1333333,9.42222222 16.2222222,9.51111111 16.3111111,9.64444444 C16.4,9.77777778 16.4888889,9.95555556 16.5333333,10.2222222 C16.5777778,10.4888889 16.6222222,10.8 16.6222222,11.1555556 C16.6222222,11.5555556 16.5777778,11.8666667 16.5333333,12.0888889 Z" id="Shape"></path>
                <path d="M23.3777778,9.02222222 C23.1555556,8.8 22.9333333,8.62222222 22.6222222,8.48888889 C22.3111111,8.35555556 22,8.31111111 21.6888889,8.31111111 C21.3333333,8.31111111 21.0222222,8.35555556 20.7555556,8.48888889 C20.4888889,8.62222222 20.2222222,8.75555556 20,9.02222222 C19.7777778,9.24444444 19.6444444,9.55555556 19.5111111,9.91111111 C19.3777778,10.2666667 19.3333333,10.7111111 19.3333333,11.1555556 C19.3333333,11.6444444 19.3777778,12.0444444 19.5111111,12.4 C19.6444444,12.7555556 19.7777778,13.0666667 20,13.2888889 C20.2222222,13.5111111 20.4444444,13.6888889 20.7555556,13.8222222 C21.0222222,13.9555556 21.3777778,14 21.6888889,14 C22.0444444,14 22.3555556,13.9555556 22.6222222,13.8222222 C22.9333333,13.6888889 23.1555556,13.5555556 23.3777778,13.2888889 C23.6,13.0666667 23.7777778,12.7555556 23.8666667,12.4 C24,12.0444444 24.0444444,11.6444444 24.0444444,11.1555556 C24.0444444,10.6666667 24,10.2666667 23.8666667,9.91111111 C23.7777778,9.55555556 23.6,9.24444444 23.3777778,9.02222222 Z M22.5777778,12.0888889 C22.5333333,12.3111111 22.4444444,12.5333333 22.3555556,12.6666667 C22.2666667,12.8 22.1777778,12.8888889 22.0444444,12.9777778 C21.9111111,13.0222222 21.8222222,13.0666667 21.6888889,13.0666667 C21.5555556,13.0666667 21.4666667,13.0222222 21.3333333,12.9777778 C21.2,12.9333333 21.1111111,12.8444444 21.0222222,12.6666667 C20.9333333,12.5333333 20.8444444,12.3111111 20.8,12.0888889 C20.7555556,11.8666667 20.7111111,11.5111111 20.7111111,11.1555556 C20.7111111,10.7555556 20.7555556,10.4444444 20.8,10.2222222 C20.8444444,9.95555556 20.9333333,9.77777778 21.0222222,9.64444444 C21.1111111,9.51111111 21.2,9.42222222 21.3333333,9.37777778 C21.4666667,9.33333333 21.5555556,9.28888889 21.6888889,9.28888889 C21.8222222,9.28888889 21.9111111,9.33333333 22.0444444,9.37777778 C22.1777778,9.42222222 22.2666667,9.51111111 22.3555556,9.64444444 C22.4444444,9.77777778 22.5333333,9.95555556 22.5777778,10.2222222 C22.6222222,10.4888889 22.6666667,10.8 22.6666667,11.1555556 C22.6666667,11.5555556 22.6222222,11.8666667 22.5777778,12.0888889 Z" id="Shape"></path>
                <path d="M26.3555556,10.4 C26.4,10.4444444 26.4888889,10.4444444 26.5777778,10.4444444 C26.6222222,10.4444444 26.6666667,10.4444444 26.7111111,10.4444444 C26.7555556,10.4444444 26.8,10.4 26.8444444,10.3555556 L27.5555556,9.82222222 C27.5555556,9.95555556 27.5555556,10.1333333 27.5555556,10.2666667 L27.5555556,13.0666667 L26.3111111,13.0666667 L26.3111111,13.9111111 L29.9555556,13.9111111 L29.9555556,13.0666667 L28.8888889,13.0666667 L28.8888889,8.35555556 L27.7777778,8.35555556 L25.7777778,9.82222222 L26.2222222,10.3111111 C26.2666667,10.3555556 26.3111111,10.4 26.3555556,10.4 Z" id="Shape"></path>
                <path d="M11.2444444,16.6222222 C11.0222222,16.4 10.8,16.2222222 10.4888889,16.0888889 C10.1777778,15.9555556 9.86666667,15.9111111 9.55555556,15.9111111 C9.2,15.9111111 8.88888889,15.9555556 8.62222222,16.0888889 C8.35555556,16.2222222 8.08888889,16.3555556 7.86666667,16.6222222 C7.64444444,16.8444444 7.51111111,17.1555556 7.37777778,17.5111111 C7.24444444,17.8666667 7.2,18.3111111 7.2,18.7555556 C7.2,19.2444444 7.24444444,19.6444444 7.37777778,20 C7.51111111,20.3555556 7.64444444,20.6666667 7.86666667,20.8888889 C8.08888889,21.1111111 8.31111111,21.2888889 8.62222222,21.4222222 C8.88888889,21.5555556 9.24444444,21.6 9.55555556,21.6 C9.91111111,21.6 10.2222222,21.5555556 10.4888889,21.4222222 C10.8,21.2888889 11.0222222,21.1555556 11.2444444,20.8888889 C11.4666667,20.6666667 11.6444444,20.3555556 11.7333333,20 C11.8666667,19.6444444 11.9111111,19.2444444 11.9111111,18.7555556 C11.9111111,18.2666667 11.8666667,17.8666667 11.7333333,17.5111111 C11.6444444,17.1555556 11.4666667,16.8888889 11.2444444,16.6222222 Z M10.4444444,19.7333333 C10.4,19.9555556 10.3111111,20.1777778 10.2222222,20.3111111 C10.1333333,20.4444444 10.0444444,20.5333333 9.91111111,20.6222222 C9.77777778,20.6666667 9.68888889,20.7111111 9.55555556,20.7111111 C9.42222222,20.7111111 9.33333333,20.6666667 9.2,20.6222222 C9.06666667,20.5777778 8.97777778,20.4888889 8.88888889,20.3111111 C8.8,20.1777778 8.71111111,19.9555556 8.66666667,19.7333333 C8.62222222,19.5111111 8.57777778,19.1555556 8.57777778,18.8 C8.57777778,18.4 8.62222222,18.0888889 8.66666667,17.8666667 C8.71111111,17.6 8.8,17.4222222 8.88888889,17.2888889 C8.97777778,17.1555556 9.06666667,17.0666667 9.2,17.0222222 C9.33333333,16.9777778 9.42222222,16.9333333 9.55555556,16.9333333 C9.68888889,16.9333333 9.77777778,16.9777778 9.91111111,17.0222222 C10.0444444,17.0666667 10.1333333,17.1555556 10.2222222,17.2888889 C10.3111111,17.4222222 10.4,17.6 10.4444444,17.8666667 C10.4888889,18.1333333 10.5333333,18.4444444 10.5333333,18.8 C10.5333333,19.2 10.4888889,19.5111111 10.4444444,19.7333333 Z" id="Shape"></path>
                <path d="M15.6444444,16 L13.6444444,17.4666667 L14.0888889,17.9555556 C14.1333333,18 14.1777778,18 14.2222222,18.0444444 C14.2666667,18.0888889 14.3555556,18.0888889 14.4444444,18.0888889 C14.4888889,18.0888889 14.5333333,18.0888889 14.5777778,18.0888889 C14.6222222,18.0888889 14.6666667,18.0444444 14.7111111,18 L15.4222222,17.4666667 C15.4222222,17.6 15.4222222,17.7777778 15.4222222,17.9111111 L15.4222222,20.7111111 L14.1777778,20.7111111 L14.1777778,21.5555556 L17.8222222,21.5555556 L17.8222222,20.7111111 L16.7555556,20.7111111 L16.7555556,16 L15.6444444,16 Z" id="Shape"></path>
                <path d="M23.3777778,16.6222222 C23.1555556,16.4 22.9333333,16.2222222 22.6222222,16.0888889 C22.3111111,15.9555556 22,15.9111111 21.6888889,15.9111111 C21.3333333,15.9111111 21.0222222,15.9555556 20.7555556,16.0888889 C20.4888889,16.2222222 20.2222222,16.3555556 20,16.6222222 C19.7777778,16.8444444 19.6444444,17.1555556 19.5111111,17.5111111 C19.3777778,17.8666667 19.3333333,18.3111111 19.3333333,18.7555556 C19.3333333,19.2444444 19.3777778,19.6444444 19.5111111,20 C19.6444444,20.3555556 19.7777778,20.6666667 20,20.8888889 C20.2222222,21.1111111 20.4444444,21.2888889 20.7555556,21.4222222 C21.0222222,21.5555556 21.3777778,21.6 21.6888889,21.6 C22.0444444,21.6 22.3555556,21.5555556 22.6222222,21.4222222 C22.9333333,21.2888889 23.1555556,21.1555556 23.3777778,20.8888889 C23.6,20.6666667 23.7777778,20.3555556 23.8666667,20 C24,19.6444444 24.0444444,19.2444444 24.0444444,18.7555556 C24.0444444,18.2666667 24,17.8666667 23.8666667,17.5111111 C23.7777778,17.1555556 23.6,16.8888889 23.3777778,16.6222222 Z M22.5777778,19.7333333 C22.5333333,19.9555556 22.4444444,20.1777778 22.3555556,20.3111111 C22.2666667,20.4444444 22.1777778,20.5333333 22.0444444,20.6222222 C21.9111111,20.6666667 21.8222222,20.7111111 21.6888889,20.7111111 C21.5555556,20.7111111 21.4666667,20.6666667 21.3333333,20.6222222 C21.2,20.5777778 21.1111111,20.4888889 21.0222222,20.3111111 C20.9333333,20.1777778 20.8444444,19.9555556 20.8,19.7333333 C20.7555556,19.5111111 20.7111111,19.1555556 20.7111111,18.8 C20.7111111,18.4 20.7555556,18.0888889 20.8,17.8666667 C20.8444444,17.6 20.9333333,17.4222222 21.0222222,17.2888889 C21.1111111,17.1555556 21.2,17.0666667 21.3333333,17.0222222 C21.4666667,16.9777778 21.5555556,16.9333333 21.6888889,16.9333333 C21.8222222,16.9333333 21.9111111,16.9777778 22.0444444,17.0222222 C22.1777778,17.0666667 22.2666667,17.1555556 22.3555556,17.2888889 C22.4444444,17.4222222 22.5333333,17.6 22.5777778,17.8666667 C22.6222222,18.1333333 22.6666667,18.4444444 22.6666667,18.8 C22.6666667,19.2 22.6222222,19.5111111 22.5777778,19.7333333 Z" id="Shape"></path>
                <path d="M29.4666667,16.6222222 C29.2444444,16.4 29.0222222,16.2222222 28.7111111,16.0888889 C28.4,15.9555556 28.0888889,15.9111111 27.7777778,15.9111111 C27.4666667,15.9111111 27.1111111,16 26.8,16.1333333 C26.5333333,16.2666667 26.2666667,16.4 26.0444444,16.6666667 C25.8222222,16.8888889 25.6888889,17.2 25.5555556,17.5555556 C25.4222222,17.9111111 25.3777778,18.3555556 25.3777778,18.8 C25.3777778,19.2888889 25.4222222,19.6888889 25.5555556,20.0444444 C25.6888889,20.4 25.8222222,20.7111111 26.0444444,20.9333333 C26.2666667,21.1555556 26.4888889,21.3333333 26.8,21.4666667 C27.0666667,21.6 27.4222222,21.6444444 27.7333333,21.6444444 C28.0444444,21.6444444 28.4,21.6 28.6666667,21.4666667 C28.9777778,21.3333333 29.2,21.2 29.4222222,20.9333333 C29.6444444,20.7111111 29.8222222,20.4 29.9111111,20.0444444 C30.0444444,19.6888889 30.0888889,19.2888889 30.0888889,18.8 C30.0888889,18.3111111 30.0444444,17.9111111 29.9111111,17.5555556 C29.8222222,17.1555556 29.6888889,16.8888889 29.4666667,16.6222222 Z M28.6666667,19.7333333 C28.6222222,19.9555556 28.5333333,20.1777778 28.4444444,20.3111111 C28.3555556,20.4444444 28.2666667,20.5333333 28.1333333,20.6222222 C28,20.6666667 27.9111111,20.7111111 27.7777778,20.7111111 C27.6444444,20.7111111 27.5555556,20.6666667 27.4222222,20.6222222 C27.2888889,20.5777778 27.2,20.4888889 27.1111111,20.3111111 C27.0222222,20.1777778 26.9333333,19.9555556 26.8888889,19.7333333 C26.8444444,19.5111111 26.8,19.1555556 26.8,18.8 C26.8,18.4 26.8444444,18.0888889 26.8888889,17.8666667 C26.9333333,17.6 27.0222222,17.4222222 27.1111111,17.2888889 C27.2,17.1555556 27.2888889,17.0666667 27.4222222,17.0222222 C27.5555556,16.9777778 27.6444444,16.9333333 27.7777778,16.9333333 C27.9111111,16.9333333 28,16.9777778 28.1333333,17.0222222 C28.2666667,17.0666667 28.3555556,17.1555556 28.4444444,17.2888889 C28.5333333,17.4222222 28.6222222,17.6 28.6666667,17.8666667 C28.7111111,18.1333333 28.7555556,18.4444444 28.7555556,18.8 C28.7555556,19.2 28.7111111,19.5111111 28.6666667,19.7333333 Z" id="Shape"></path>
                <path d="M10.7111111,23.6444444 L9.6,23.6444444 L7.6,25.1111111 L8.04444444,25.6 C8.08888889,25.6444444 8.13333333,25.6444444 8.17777778,25.6888889 C8.22222222,25.7333333 8.31111111,25.7333333 8.4,25.7333333 C8.44444444,25.7333333 8.48888889,25.7333333 8.53333333,25.7333333 C8.57777778,25.7333333 8.62222222,25.6888889 8.66666667,25.6444444 L9.37777778,25.1111111 C9.37777778,25.2444444 9.37777778,25.4222222 9.37777778,25.5555556 L9.37777778,28.3555556 L8.13333333,28.3555556 L8.13333333,29.2 L11.7777778,29.2 L11.7777778,28.3555556 L10.7111111,28.3555556 L10.7111111,23.6444444 Z" id="Shape"></path>
                <path d="M17.3333333,24.2666667 C17.1111111,24.0444444 16.8888889,23.8666667 16.5777778,23.7333333 C16.2666667,23.6 15.9555556,23.5555556 15.6444444,23.5555556 C15.2888889,23.5555556 14.9777778,23.6 14.7111111,23.7333333 C14.4444444,23.8666667 14.1777778,24 13.9555556,24.2666667 C13.7333333,24.4888889 13.6,24.8 13.4666667,25.1555556 C13.3333333,25.5111111 13.2888889,25.9555556 13.2888889,26.4 C13.2888889,26.8888889 13.3333333,27.2888889 13.4666667,27.6444444 C13.6,28 13.7333333,28.3111111 13.9555556,28.5333333 C14.1777778,28.7555556 14.4,28.9333333 14.7111111,29.0666667 C14.9777778,29.2 15.3333333,29.2444444 15.6444444,29.2444444 C16,29.2444444 16.3111111,29.2 16.5777778,29.0666667 C16.8888889,28.9333333 17.1111111,28.8 17.3333333,28.5333333 C17.5555556,28.3111111 17.7333333,28 17.8222222,27.6444444 C17.9555556,27.2888889 18,26.8888889 18,26.4 C18,25.9111111 17.9555556,25.5111111 17.8222222,25.1555556 C17.6888889,24.8 17.5555556,24.5333333 17.3333333,24.2666667 Z M16.5333333,27.3777778 C16.4888889,27.6 16.4,27.8222222 16.3111111,27.9555556 C16.2222222,28.0888889 16.1333333,28.1777778 16,28.2666667 C15.8666667,28.3111111 15.7777778,28.3555556 15.6444444,28.3555556 C15.5111111,28.3555556 15.4222222,28.3111111 15.2888889,28.2666667 C15.1555556,28.2222222 15.0666667,28.1333333 14.9777778,27.9555556 C14.8888889,27.8222222 14.8,27.6 14.7555556,27.3777778 C14.7111111,27.1111111 14.6666667,26.8 14.6666667,26.4444444 C14.6666667,26.0444444 14.7111111,25.7333333 14.7555556,25.5111111 C14.8,25.2444444 14.8888889,25.0666667 14.9777778,24.9333333 C15.0666667,24.8 15.1555556,24.7111111 15.2888889,24.6666667 C15.4222222,24.6222222 15.5111111,24.5777778 15.6444444,24.5777778 C15.7777778,24.5777778 15.8666667,24.6222222 16,24.6666667 C16.1333333,24.7111111 16.2222222,24.8 16.3111111,24.9333333 C16.4,25.0666667 16.4888889,25.2444444 16.5333333,25.5111111 C16.5777778,25.7777778 16.6222222,26.0888889 16.6222222,26.4444444 C16.6222222,26.8 16.5777778,27.1111111 16.5333333,27.3777778 Z" id="Shape"></path>
                <path d="M22.8444444,23.6444444 L21.7333333,23.6444444 L19.7333333,25.1111111 L20.1777778,25.6 C20.2222222,25.6444444 20.2666667,25.6444444 20.3111111,25.6888889 C20.3555556,25.7333333 20.4444444,25.7333333 20.5333333,25.7333333 C20.5777778,25.7333333 20.6222222,25.7333333 20.6666667,25.7333333 C20.7111111,25.7333333 20.7555556,25.6888889 20.8,25.6444444 L21.5111111,25.1111111 C21.5111111,25.2444444 21.5111111,25.4222222 21.5111111,25.5555556 L21.5111111,28.3555556 L20.2666667,28.3555556 L20.2666667,29.2 L23.9111111,29.2 L23.9111111,28.3555556 L22.8444444,28.3555556 L22.8444444,23.6444444 Z" id="Shape"></path>
                <path d="M29.4666667,24.2666667 C29.2444444,24.0444444 29.0222222,23.8666667 28.7111111,23.7333333 C28.4,23.6 28.0888889,23.5555556 27.7777778,23.5555556 C27.4666667,23.5555556 27.1111111,23.6 26.8444444,23.7333333 C26.5777778,23.8666667 26.3111111,24 26.0888889,24.2666667 C25.8666667,24.4888889 25.7333333,24.8 25.6,25.1555556 C25.4666667,25.5111111 25.4222222,25.9555556 25.4222222,26.4 C25.4222222,26.8888889 25.4666667,27.2888889 25.6,27.6444444 C25.7333333,28 25.8666667,28.3111111 26.0888889,28.5333333 C26.3111111,28.7555556 26.5333333,28.9333333 26.8444444,29.0666667 C27.1111111,29.2 27.4666667,29.2444444 27.7777778,29.2444444 C28.0888889,29.2444444 28.4444444,29.2 28.7111111,29.0666667 C29.0222222,28.9333333 29.2444444,28.8 29.4666667,28.5333333 C29.6888889,28.3111111 29.8666667,28 29.9555556,27.6444444 C30.0888889,27.2888889 30.1333333,26.8888889 30.1333333,26.4 C30.1333333,25.9111111 30.0888889,25.5111111 29.9555556,25.1555556 C29.8222222,24.8 29.6888889,24.5333333 29.4666667,24.2666667 Z M28.6666667,27.3777778 C28.6222222,27.6 28.5333333,27.8222222 28.4444444,27.9555556 C28.3555556,28.0888889 28.2666667,28.1777778 28.1333333,28.2666667 C28,28.3111111 27.9111111,28.3555556 27.7777778,28.3555556 C27.6444444,28.3555556 27.5555556,28.3111111 27.4222222,28.2666667 C27.2888889,28.2222222 27.2,28.1333333 27.1111111,27.9555556 C27.0222222,27.8222222 26.9333333,27.6 26.8888889,27.3777778 C26.8444444,27.1555556 26.8,26.8 26.8,26.4444444 C26.8,26.0444444 26.8444444,25.7333333 26.8888889,25.5111111 C26.9333333,25.2444444 27.0222222,25.0666667 27.1111111,24.9333333 C27.2,24.8 27.2888889,24.7111111 27.4222222,24.6666667 C27.5555556,24.6222222 27.6444444,24.5777778 27.7777778,24.5777778 C27.9111111,24.5777778 28,24.6222222 28.1333333,24.6666667 C28.2666667,24.7111111 28.3555556,24.8 28.4444444,24.9333333 C28.5333333,25.0666667 28.6222222,25.2444444 28.6666667,25.5111111 C28.7111111,25.7777778 28.7555556,26.0888889 28.7555556,26.4444444 C28.7555556,26.8 28.7111111,27.1111111 28.6666667,27.3777778 Z" id="Shape"></path>
            </g>
        </g>
    </g>
</svg>