<?xml version="1.0" encoding="utf-8"?>
<!-- Generator: Adobe Illustrator 22.0.0, SVG Export Plug-In . SVG Version: 6.00 Build 0)  -->
<svg version="1.1" id="Layer_1" xmlns="http://www.w3.org/2000/svg" xmlns:xlink="http://www.w3.org/1999/xlink" x="0px" y="0px"
	 viewBox="0 0 860 715" style="enable-background:new 0 0 860 715;" xml:space="preserve">
<style type="text/css">
	.st0{opacity:0.25;}
	.st1{fill:#D8D8D8;}
	.st2{opacity:8.000000e-02;}
</style>
<g>
	<g class="st0">
		<polygon class="st1" points="860,411.1 860,388.2 430,0.1 430,23 		"/>
		<polygon class="st1" points="430,61.2 860,449.4 860,426.4 430,38.3 		"/>
		<polygon class="st1" points="430,99.4 860,487.6 860,464.7 430,76.5 		"/>
		<polygon class="st1" points="430,137.7 860,525.8 860,502.9 430,114.8 		"/>
		<polygon class="st1" points="430,175.9 860,564.1 860,541.1 430,153 		"/>
		<polygon class="st1" points="430,214.1 860,602.3 860,579.4 430,191.2 		"/>
		<polygon class="st1" points="430,252.4 860,640.5 860,617.6 430,229.5 		"/>
		<polygon class="st1" points="430,290.6 860,678.8 860,655.8 430,267.7 		"/>
		<polygon class="st1" points="430,328.8 857.8,715.1 860,715.1 860,694.1 430,305.9 		"/>
		<polygon class="st1" points="430,367.1 815.5,715.1 840.9,715.1 430,344.2 		"/>
		<polygon class="st1" points="430,405.3 773.1,715.1 798.5,715.1 430,382.4 		"/>
		<polygon class="st1" points="430,443.5 730.8,715.1 756.2,715.1 430,420.6 		"/>
		<polygon class="st1" points="430,481.8 688.4,715.1 713.8,715.1 430,458.9 		"/>
		<polygon class="st1" points="430,520 646.1,715.1 671.4,715.1 430,497.1 		"/>
		<polygon class="st1" points="430,558.3 603.7,715.1 629.1,715.1 430,535.3 		"/>
		<polygon class="st1" points="430,596.5 561.3,715.1 586.7,715.1 430,573.6 		"/>
		<polygon class="st1" points="430,634.7 519,715.1 544.4,715.1 430,611.8 		"/>
		<polygon class="st1" points="430,673 476.6,715.1 502,715.1 430,650 		"/>
		<polygon class="st1" points="430,711.2 434.3,715.1 459.7,715.1 430,688.3 		"/>
	</g>
	<g class="st2">
		<polygon class="st1" points="0,411.1 0,388.2 430,0.1 430,23 		"/>
		<polygon class="st1" points="430,61.2 0,449.4 0,426.4 430,38.3 		"/>
		<polygon class="st1" points="430,99.4 0,487.6 0,464.7 430,76.5 		"/>
		<polygon class="st1" points="430,137.7 0,525.8 0,502.9 430,114.8 		"/>
		<polygon class="st1" points="430,175.9 0,564.1 0,541.1 430,153 		"/>
		<polygon class="st1" points="430,214.1 0,602.3 0,579.4 430,191.2 		"/>
		<polygon class="st1" points="430,252.4 0,640.5 0,617.6 430,229.5 		"/>
		<polygon class="st1" points="430,290.6 0,678.8 0,655.8 430,267.7 		"/>
		<polygon class="st1" points="430,328.8 2.1,715.1 0,715.1 0,694.1 430,305.9 		"/>
		<polygon class="st1" points="430,367.1 44.5,715.1 19.1,715.1 430,344.2 		"/>
		<polygon class="st1" points="430,405.3 86.8,715.1 61.5,715.1 430,382.4 		"/>
		<polygon class="st1" points="430,443.5 129.2,715.1 103.8,715.1 430,420.6 		"/>
		<polygon class="st1" points="430,481.8 171.6,715.1 146.2,715.1 430,458.9 		"/>
		<polygon class="st1" points="430,520 213.9,715.1 188.5,715.1 430,497.1 		"/>
		<polygon class="st1" points="430,558.3 256.3,715.1 230.9,715.1 430,535.3 		"/>
		<polygon class="st1" points="430,596.5 298.6,715.1 273.2,715.1 430,573.6 		"/>
		<polygon class="st1" points="430,634.7 341,715.1 315.6,715.1 430,611.8 		"/>
		<polygon class="st1" points="430,673 383.3,715.1 357.9,715.1 430,650 		"/>
		<polygon class="st1" points="430,711.2 425.7,715.1 400.3,715.1 430,688.3 		"/>
	</g>
</g>
</svg>
