<?xml version="1.0" encoding="utf-8"?>
<!-- Generator: Adobe Illustrator 22.0.0, SVG Export Plug-In . SVG Version: 6.00 Build 0)  -->
<svg version="1.1" id="Layer_1" xmlns="http://www.w3.org/2000/svg" xmlns:xlink="http://www.w3.org/1999/xlink" x="0px" y="0px"
	 viewBox="0 0 129 120" style="enable-background:new 0 0 129 120;" xml:space="preserve">
<style type="text/css">
	.st0{fill:#F6F1EC;}
	.st1{fill:#FFFFFF;}
</style>
<title>Group 14</title>
<desc>Created with Sketch.</desc>
<g id="Group-14" transform="translate(88.000000, 100.000000)">
	<g id="XMLID_1_">
		<g>
			<path class="st0" d="M-6.8-29.2c0,2.1-0.4,4-1.2,5.6c-0.8,1.6-1.9,3-3.4,4.2c-1.5,1.2-3.2,2.1-5.1,2.7c-1.9,0.6-4.1,1-6.4,1.2v7
				h-4v-7c-2.8-0.2-5.3-0.7-7.4-1.5c-2.1-0.9-3.9-1.9-5.3-3.3s-2.5-2.9-3.2-4.6c-0.8-1.7-1.2-3.6-1.2-5.6h8.4
				c0.3,2.4,1.2,4.4,2.5,5.8c1.4,1.4,3.5,2.3,6.3,2.6v-14c0,0-0.1,0-0.1-0.1c-2.2-0.5-4.2-1.1-6.1-1.7c-1.9-0.6-3.5-1.4-4.9-2.3
				c-1.4-1-2.5-2.2-3.3-3.6c-0.8-1.5-1.2-3.3-1.2-5.6c0-2,0.4-3.7,1.2-5.2c0.8-1.5,1.8-2.8,3.2-3.9c1.4-1.1,3-1.9,4.9-2.5
				c1.9-0.6,4-0.9,6.2-1v-4.9h4v5c4.6,0.3,8.2,1.6,10.7,3.7c2.5,2.2,4,5.1,4.3,8.9h-8.1c-0.5-3.5-2.8-5.6-7-6.3v12.9
				c2.2,0.5,4.3,1.1,6.3,1.7c2,0.6,3.7,1.4,5.1,2.4s2.6,2.3,3.4,3.8C-7.2-33.5-6.8-31.5-6.8-29.2z M-15.2-28.8
				c0-0.9-0.2-1.7-0.5-2.4c-0.3-0.7-0.8-1.2-1.5-1.7c-0.6-0.5-1.4-0.9-2.4-1.2c-1-0.4-2.1-0.7-3.3-1.1v13.1c1.1-0.1,2.1-0.4,3-0.7
				c0.9-0.3,1.7-0.8,2.4-1.4c0.7-0.6,1.3-1.2,1.7-2C-15.4-26.9-15.2-27.8-15.2-28.8z M-26.9-43.8v-12.2c-2.3,0.2-4,0.8-5.3,1.9
				c-1.3,1-2,2.4-2,4.2c0,1.6,0.6,2.9,1.8,3.8C-31.2-45.2-29.4-44.5-26.9-43.8z"/>
			<path class="st1" d="M-23.5-100C12.1-100,41-73.1,41-40S12.1,20-23.5,20S-88-6.9-88-40S-59.1-100-23.5-100z M-8.1-23.6
				c0.8-1.6,1.2-3.5,1.2-5.6c0-2.3-0.4-4.2-1.2-5.7c-0.8-1.5-2-2.8-3.4-3.8s-3.2-1.8-5.1-2.4c-2-0.6-4.1-1.2-6.3-1.7v-12.9
				c4.1,0.6,6.5,2.7,7,6.3h8.1c-0.3-3.8-1.8-6.7-4.3-8.9c-2.5-2.1-6.1-3.4-10.7-3.7v-5h-4v4.9c-2.3,0.1-4.3,0.4-6.2,1
				c-1.9,0.6-3.6,1.4-4.9,2.5c-1.4,1.1-2.5,2.4-3.2,3.9c-0.8,1.5-1.2,3.3-1.2,5.2c0,2.3,0.4,4.1,1.2,5.6c0.8,1.5,1.9,2.7,3.3,3.6
				c1.4,1,3,1.7,4.9,2.3c1.9,0.6,3.9,1.1,6.1,1.7c0,0,0.1,0.1,0.1,0.1v14c-2.8-0.4-4.9-1.2-6.3-2.6c-1.4-1.4-2.2-3.3-2.5-5.8h-8.4
				c0.1,2,0.5,3.9,1.2,5.6c0.7,1.7,1.8,3.3,3.2,4.6s3.2,2.4,5.3,3.3c2.1,0.9,4.6,1.4,7.4,1.5v7h4v-7c2.3-0.1,4.4-0.5,6.4-1.2
				c1.9-0.6,3.6-1.5,5.1-2.7C-10-20.6-8.9-22-8.1-23.6z"/>
			<path class="st1" d="M-15.7-31.2c0.3,0.7,0.5,1.5,0.5,2.4c0,1-0.2,1.9-0.6,2.6c-0.4,0.8-1,1.4-1.7,2c-0.7,0.6-1.5,1-2.4,1.4
				c-0.9,0.3-1.9,0.6-3,0.7v-13.1c1.2,0.3,2.3,0.7,3.3,1.1c1,0.4,1.8,0.8,2.4,1.2C-16.6-32.4-16.1-31.9-15.7-31.2z"/>
			<path class="st1" d="M-26.9-55.9v12.2c-2.5-0.7-4.4-1.5-5.5-2.3c-1.2-0.9-1.8-2.1-1.8-3.8c0-1.8,0.7-3.1,2-4.2
				C-30.9-55.1-29.1-55.7-26.9-55.9z"/>
		</g>
		<g>
		</g>
	</g>
</g>
</svg>
