<svg xmlns="http://www.w3.org/2000/svg" xmlns:xlink="http://www.w3.org/1999/xlink" width="40" height="40" version="1.1" viewBox="0 0 40 40"><title>Artboard</title><desc>Created with Sketch.</desc><g id="Page-1" fill="none" fill-rule="evenodd" stroke="none" stroke-width="1"><g id="Artboard" fill="#000" fill-rule="nonzero"><g id="noun_647506"><path id="Shape" d="M39,28.4467269 C38.9968977,28.1985897 38.8166735,28.0686932 38.6814631,28.0312444 L36.7286937,27.4633961 C36.5997721,27.0599237 36.4362026,26.6690378 36.2439637,26.3000449 L37.2272731,24.5134921 C37.3200798,24.3480525 37.2904708,24.123005 37.158026,23.9872142 L35.412998,22.2421875 C35.2786474,22.0990842 35.0440182,22.0630092 34.8728703,22.159091 L33.1001434,23.1562491 C32.7237403,22.959122 32.3353802,22.7887631 31.922942,22.65767 L31.3689648,20.7048799 C31.3151626,20.5213585 31.1309053,20.384637 30.9396325,20.3863654 L28.4605848,20.3863654 C28.269312,20.3863654 28.0850548,20.5213585 28.0312525,20.7048799 L27.4772754,22.6437985 C27.0634145,22.7748915 26.6638375,22.9448516 26.2862245,23.1423775 L24.5134976,22.159091 C24.345226,22.0697013 24.1197706,22.1053331 23.9872193,22.2421875 L22.2421913,23.9872142 C22.1097686,24.123005 22.0801198,24.3480525 22.1729663,24.5134921 L23.1562536,26.2862177 C22.9606775,26.659465 22.8021514,27.0546499 22.6715458,27.4633961 L20.7187542,28.0312444 C20.534559,28.0787091 20.3922533,28.2566021 20.386359,28.4467269 L20.386359,30.9396223 C20.3921204,31.1297471 20.534559,31.3076401 20.7187542,31.3551048 L22.6715458,31.9229088 C22.8021514,32.3316993 22.9606775,32.7268399 23.1562536,33.1001315 L22.1729663,34.8728571 C22.0801198,35.0382967 22.1097686,35.2632999 22.2421913,35.399135 L23.9872193,37.1441617 C24.1197706,37.2810161 24.345226,37.3166036 24.5134976,37.2272582 L26.2862245,36.2439274 C26.6638375,36.4414533 27.0634145,36.6114577 27.4772754,36.7425064 L28.0312525,38.681425 C28.0850548,38.8649907 28.269312,39.0017122 28.4605848,38.9999838 L30.9396325,38.9999838 C31.1309053,38.9999838 31.3151626,38.8649907 31.3689648,38.681425 L31.922942,36.7286792 C32.3353846,36.5975861 32.7237403,36.4272272 33.1001434,36.2301001 L34.8728703,37.2272582 C35.0440182,37.32334 35.2786474,37.287265 35.412998,37.1441617 L37.158026,35.399135 C37.2904708,35.2632999 37.3200798,35.0382967 37.2272731,34.8728571 L36.2439637,33.08626 C36.4362026,32.7173115 36.5997721,32.3263812 36.7286937,31.9229088 L38.6814631,31.3551048 C38.8606238,31.3026321 38.9958385,31.1262459 39,30.9396223 L39,28.4467269 Z M38.1136366,28.779113 L38.1136366,30.6072362 L36.285512,31.1196425 C36.1412741,31.1608584 36.0219562,31.2801185 35.9808246,31.4243297 C35.8368304,31.9469292 35.6352536,32.4426276 35.3714497,32.9062397 C35.2941101,33.0402134 35.2941101,33.2154473 35.3714497,33.3494211 L36.2993614,35.0113513 L35.0113645,36.2854978 L33.3494331,35.3575646 C33.21873,35.2852374 33.050804,35.2852374 32.9201008,35.3575646 C32.4566125,35.6213461 31.9607675,35.8368209 31.438212,35.9808106 C31.2889395,36.0175946 31.1632354,36.138007 31.1196751,36.2854978 L30.6072462,38.113621 L28.7929711,38.113621 L28.2666928,36.2854978 C28.2255655,36.1412422 28.1062433,36.0219378 27.9620054,35.9808106 C27.4394232,35.8368653 26.9437599,35.6213461 26.4801165,35.3575646 C26.3494133,35.2852374 26.1814874,35.2852374 26.0507842,35.3575646 L24.3888528,36.2854978 L23.1008559,35.0113513 L24.0287676,33.3494211 C24.1061073,33.2154473 24.1061073,33.0402134 24.0287676,32.9062397 C23.7649548,32.4426276 23.5494799,31.9468849 23.4055433,31.4243297 C23.3643274,31.2801185 23.2451116,31.1608141 23.1008559,31.1196425 L21.2727313,30.6072362 L21.2727313,28.779113 L23.1008559,28.2666623 C23.2451116,28.2254465 23.3644161,28.1062307 23.4055433,27.9619751 C23.5494799,27.4394643 23.7649548,26.9437216 24.0287676,26.4801095 C24.1061073,26.3461358 24.1061073,26.1709019 24.0287676,26.0369281 L23.1008559,24.3749979 L24.3888528,23.1008514 L26.0507842,24.0287403 C26.1814874,24.1011118 26.3494133,24.1011118 26.4801165,24.0287403 C26.9437599,23.7649587 27.4394188,23.5494839 27.9620054,23.4055386 C28.1062433,23.3643228 28.2255611,23.245107 28.2666928,23.1008514 L28.7929711,21.2727282 L30.6072462,21.2727282 L31.1196751,23.1008514 C31.1632399,23.2483422 31.2889395,23.3685773 31.438212,23.4055386 C31.9607719,23.5495283 32.4566125,23.7650031 32.9201008,24.0287403 C33.050804,24.1011118 33.21873,24.1011118 33.3494331,24.0287403 L35.0113645,23.1008514 L36.2993614,24.3749979 L35.3714497,26.0369281 C35.2941101,26.1709019 35.2941101,26.3461358 35.3714497,26.4801095 C35.6352536,26.9437216 35.8368304,27.43942 35.9808246,27.9619751 C36.0219518,28.1062307 36.1412741,28.2255351 36.285512,28.2666623 L38.1136366,28.779113 Z M33.2386377,29.6931746 C33.2386377,27.7403401 31.6460332,26.1477235 29.6931839,26.1477235 C27.7403347,26.1477235 26.1477302,27.7403401 26.1477302,29.6931746 C26.1477302,31.6460091 27.7403347,33.2386257 29.6931839,33.2386257 C31.6460332,33.2386257 33.2386377,31.6460091 33.2386377,29.6931746 Z M32.3522742,29.6931746 C32.3522742,31.1669743 31.1670069,32.3522629 29.6931839,32.3522629 C28.219361,32.3522629 27.0340936,31.1669743 27.0340936,29.6931746 C27.0340936,28.2193306 28.219361,27.0340863 29.6931839,27.0340863 C31.1670069,27.0340863 32.3522742,28.2193306 32.3522742,29.6931746 Z M23.9318216,10.359382 C23.9378489,10.0859746 23.7321106,9.9661073 23.6132848,9.93005006 L21.0096143,9.18218146 C20.8311894,8.60650657 20.6093326,8.05574289 20.3309613,7.53410067 L21.6466881,5.16585012 C21.7360335,4.99757857 21.700446,4.77212334 21.5635915,4.63957222 L19.2922763,2.36826759 C19.1564411,2.23582283 18.9314378,2.20621388 18.765998,2.2990205 L16.4115952,3.60086583 C15.8856714,3.32055804 15.3303647,3.08708122 14.7496637,2.90839491 L14.0156218,0.318553663 C13.9618196,0.134996794 13.7775889,-0.00171136896 13.5863117,1.70384587e-05 L10.3593727,1.70384587e-05 C10.1680954,-0.0017556871 9.98386481,0.134996794 9.93006255,0.318553663 L9.19602067,2.90839491 C8.61354694,3.0876086 8.06138684,3.33330393 7.53408923,3.61471525 L5.17968636,2.2990205 C5.01145458,2.19953514 4.77727736,2.22955625 4.6395808,2.36826759 L2.3682745,4.63957222 C2.23580748,4.77538515 2.20620295,5.00039721 2.2990052,5.16585012 L3.61472308,7.53410067 C3.33613905,8.05609301 3.10076524,8.60607668 2.92225165,9.18218146 L0.332386329,9.93005006 C0.14376819,9.97876456 -8.85954062e-05,10.1645905 4.0937167e-08,10.359382 L4.0937167e-08,13.5724471 C-8.85954062e-05,13.7672386 0.14376819,13.9530646 0.332386329,14.0017791 L2.92225165,14.7496477 C3.10076524,15.325748 3.33613905,15.8757361 3.61472308,16.3977285 L2.2990052,18.7659613 C2.20620295,18.9314452 2.23580748,19.1564484 2.3682745,19.2922392 L4.6395808,21.5635438 C4.77727736,21.7022596 5.01145458,21.7323073 5.17968636,21.6328131 L7.53408923,20.3170962 C8.06138684,20.5985163 8.61354694,20.8442161 9.19602067,21.0234387 L9.93006255,23.6132577 C9.98386481,23.7968235 10.1680954,23.9335449 10.3593727,23.9318165 L13.5863117,23.9318165 C13.7775889,23.9318165 13.9618196,23.7968235 14.0156218,23.6132577 L14.7496637,21.0234387 C15.3303647,20.8447479 15.8856714,20.61128 16.4115952,20.3309677 L18.765998,21.6328131 C18.9314378,21.7256153 19.1564411,21.6960107 19.2922763,21.5635438 L21.5635915,19.2922392 C21.700446,19.159728 21.7360335,18.9342373 21.6466881,18.7659613 L20.3309613,16.3977285 C20.6093326,15.8760862 20.8311894,15.3253226 21.0096143,14.7496477 L23.6132848,14.0017791 C23.7968418,13.9479769 23.93355,13.7637198 23.9318216,13.5724471 L23.9318216,10.359382 Z M23.0454582,10.6779187 L23.0454582,13.2539105 L20.5802599,13.9463814 C20.4359954,13.9875086 20.3166909,14.1068308 20.2755636,14.2510686 C20.08535,14.9415541 19.8065001,15.6059406 19.4584695,16.217686 C19.3860979,16.3483891 19.3860979,16.5163149 19.4584695,16.647018 L20.7049269,18.9044555 L18.9044923,20.7048799 L16.6470133,19.444605 C16.516319,19.3722334 16.3483974,19.3722334 16.2177032,19.444605 C15.6059351,19.7926796 14.9553887,20.071485 14.2649116,20.2616985 C14.1207002,20.3029144 14.0013514,20.4221745 13.9602241,20.5663857 L13.2539254,23.0454538 L10.691759,23.0454538 L9.98546026,20.5663857 C9.94424436,20.4221745 9.82498416,20.30287 9.68077283,20.2616985 C8.9902514,20.071485 8.33974927,19.7926796 7.72798123,19.444605 C7.5940074,19.3672698 7.41877335,19.3672698 7.28479951,19.444605 L5.0273648,20.6910526 L3.24076635,18.9044555 L4.48721493,16.647018 C4.5595865,16.5163149 4.5595865,16.3483891 4.48721493,16.217686 C4.13914,15.6059362 3.86033439,14.9415541 3.67012079,14.2510686 C3.62890489,14.1068308 3.50964469,13.9875131 3.36543336,13.9463814 L0.886363475,13.2400611 L0.886363475,10.6917681 L3.36543336,9.98544773 C3.50964469,9.9443205 3.62899353,9.82499834 3.67012079,9.68076053 C3.86033439,8.99027063 4.13914,8.3258974 4.48721493,7.71414311 C4.5595865,7.58344005 4.5595865,7.41551419 4.48721493,7.28481114 L3.24076635,5.02735593 L5.0273648,3.24078095 L7.28479951,4.48722861 C7.41877335,4.5645682 7.5940074,4.5645682 7.72798123,4.48722861 C8.33974927,4.13916724 8.9902514,3.86033967 9.68077283,3.67011292 C9.82498416,3.62898569 9.944333,3.50966353 9.98546026,3.36542572 L10.691759,0.886379819 L13.2539254,0.886379819 L13.9602241,3.36542572 C14.00144,3.50966353 14.1207002,3.62898126 14.2649116,3.67011292 C14.9553887,3.86033967 15.6059351,4.13916724 16.2177032,4.48722861 C16.3483974,4.55958241 16.516319,4.55958241 16.6470133,4.48722861 L18.9044923,3.22693153 L20.7049269,5.02735593 L19.4584695,7.28481114 C19.3860979,7.41551419 19.3860979,7.58344005 19.4584695,7.71414311 C19.8065001,8.3258974 20.08535,8.99027063 20.2755636,9.68076053 C20.3167795,9.82499834 20.4359954,9.94431607 20.5802599,9.98544773 L23.0454582,10.6779187 Z M16.8409053,11.9659146 C16.8409053,9.27877728 14.6530501,7.09091928 11.9659064,7.09091928 C9.2787627,7.09091928 7.09090751,9.27877728 7.09090751,11.9659146 C7.09090751,14.6530519 9.2787627,16.8409099 11.9659064,16.8409099 C14.6530501,16.8409099 16.8409053,14.6530519 16.8409053,11.9659146 Z M15.9545419,11.9659146 C15.9545419,14.174026 14.174015,15.9545471 11.9659064,15.9545471 C9.75779781,15.9545471 7.97727095,14.174026 7.97727095,11.9659146 C7.97727095,9.75780318 9.75779781,7.97728206 11.9659064,7.97728206 C14.174015,7.97728206 15.9545419,9.75780318 15.9545419,11.9659146 Z"/></g></g></g></svg>