<?xml version="1.0" encoding="UTF-8"?>
<svg width="304px" height="304px" viewBox="0 0 304 304" version="1.1" xmlns="http://www.w3.org/2000/svg" xmlns:xlink="http://www.w3.org/1999/xlink">
    <!-- Generator: Sketch 48.2 (47327) - http://www.bohemiancoding.com/sketch -->
    <title>Group 2</title>
    <desc>Created with Sketch.</desc>
    <defs></defs>
    <g id="102_Storytelling-Toronto---Home-Copy-2" stroke="none" stroke-width="1" fill="none" fill-rule="evenodd" transform="translate(-926.000000, -1697.000000)">
        <g id="Group-2" transform="translate(926.000000, 1697.000000)" fill="#FFFFFF">
            <g id="noun_203173" fill-rule="nonzero">
                <path d="M152,0 C68.2311111,0 0,68.2311111 0,152 C0,235.768889 68.2311111,304 152,304 C235.768889,304 304,235.768889 304,152 C304,68.2311111 235.768889,0 152,0 Z M292.515556,112.817778 C281.031111,93.9022222 261.777778,77.6888889 237.457778,66.5422222 C225.973333,42.2222222 210.097778,22.6311111 191.182222,11.4844444 C240.16,24.9955556 279.004444,63.84 292.515556,112.817778 Z M246.915556,119.911111 C230.364444,116.533333 211.111111,114.168889 191.182222,112.817778 C189.831111,92.8888889 187.466667,73.9733333 184.088889,57.0844444 C201.653333,59.7866667 218.204444,64.5155556 232.728889,70.9333333 C239.484444,85.4577778 244.213333,102.008889 246.915556,119.911111 Z M241.173333,74.9866667 C270.897778,90.1866667 291.502222,112.817778 296.906667,138.826667 C288.462222,131.395556 272.924444,125.653333 253.671111,121.262222 C250.968889,104.373333 246.577778,88.8355556 241.173333,74.9866667 Z M249.617778,152 C249.617778,160.782222 248.942222,169.564444 247.928889,178.008889 C232.053333,181.386667 213.137778,184.088889 191.857778,185.777778 C192.533333,174.631111 192.871111,163.484444 192.871111,152.337778 C192.871111,141.191111 192.533333,130.044444 191.857778,118.897778 C213.137778,120.586667 232.053333,122.951111 247.928889,126.666667 C248.942222,134.435556 249.617778,143.217778 249.617778,152 Z M152,186.791111 C140.177778,186.791111 129.031111,186.453333 118.222222,185.777778 C117.546667,174.968889 117.208889,163.822222 117.208889,152 C117.208889,140.177778 117.546667,129.031111 118.222222,118.222222 C129.031111,117.546667 140.177778,117.208889 152,117.208889 C163.822222,117.208889 174.968889,117.546667 185.777778,118.222222 C186.453333,129.031111 186.791111,140.177778 186.791111,152 C186.791111,163.822222 186.453333,174.968889 185.777778,185.777778 C174.968889,186.453333 163.822222,186.791111 152,186.791111 Z M185.44,191.857778 C183.751111,213.137778 181.386667,232.053333 177.671111,247.928889 C169.226667,248.942222 160.782222,249.617778 151.662222,249.617778 C142.88,249.617778 134.097778,248.942222 125.653333,247.928889 C122.275556,232.053333 119.573333,213.137778 117.884444,191.857778 C129.031111,192.533333 140.177778,192.871111 151.324444,192.871111 C163.146667,192.871111 174.293333,192.533333 185.44,191.857778 Z M54.3822222,152 C54.3822222,143.217778 55.0577778,134.435556 56.0711111,125.991111 C71.9466667,122.613333 90.8622222,119.911111 112.142222,118.222222 C111.466667,129.368889 111.128889,140.515556 111.128889,151.662222 C111.128889,162.808889 111.466667,173.955556 112.142222,185.102222 C90.8622222,183.413333 71.9466667,181.048889 56.0711111,177.333333 C55.0577778,169.564444 54.3822222,160.782222 54.3822222,152 Z M152,6.75555556 C152,6.75555556 152,6.75555556 152,6.75555556 C152,6.75555556 152,6.75555556 152,6.75555556 C160.782222,6.75555556 169.564444,22.6311111 176.32,50.3288889 C168.213333,49.3155556 160.106667,48.64 152,48.64 C143.555556,48.64 135.448889,49.3155556 127.68,50.3288889 C134.435556,22.6311111 143.555556,6.75555556 152,6.75555556 Z M152,54.3822222 C160.782222,54.3822222 169.564444,55.0577778 178.008889,56.0711111 C181.386667,71.9466667 184.088889,90.8622222 185.777778,112.142222 C174.631111,111.466667 163.484444,111.128889 152.337778,111.128889 C141.191111,111.128889 130.044444,111.466667 118.897778,112.142222 C120.586667,90.8622222 122.951111,71.9466667 126.666667,56.0711111 C134.435556,55.0577778 143.217778,54.3822222 152,54.3822222 Z M182.737778,50.6666667 C178.346667,31.4133333 172.266667,15.8755556 165.173333,7.43111111 C191.182222,12.8355556 213.813333,33.44 229.013333,63.1644444 C215.164444,57.4222222 199.626667,53.0311111 182.737778,50.6666667 Z M121.262222,50.6666667 C104.711111,53.0311111 89.1733333,57.0844444 74.9866667,62.8266667 C90.1866667,33.1022222 112.817778,12.4977778 138.826667,7.09333333 C131.395556,15.8755556 125.653333,31.4133333 121.262222,50.6666667 Z M119.911111,57.0844444 C116.533333,73.6355556 114.168889,92.8888889 112.817778,112.817778 C92.8888889,114.168889 73.9733333,116.533333 57.0844444,119.911111 C59.7866667,102.346667 64.5155556,85.7955556 70.9333333,71.2711111 C85.4577778,64.5155556 102.008889,59.7866667 119.911111,57.0844444 Z M50.6666667,121.262222 C31.4133333,125.653333 15.8755556,131.733333 7.43111111,138.826667 C12.8355556,112.817778 33.44,90.1866667 63.1644444,74.9866667 C57.4222222,88.8355556 53.0311111,104.373333 50.6666667,121.262222 Z M49.9911111,127.68 C48.9777778,135.786667 48.64,143.893333 48.64,152 C48.64,160.444444 48.9777778,168.551111 49.9911111,176.32 C22.2933333,169.564444 6.08,160.444444 6.08,152 C6.08,143.555556 22.2933333,134.435556 49.9911111,127.68 Z M50.6666667,182.737778 C53.0311111,199.288889 57.0844444,214.826667 62.8266667,229.013333 C33.44,213.813333 12.8355556,191.182222 7.43111111,165.173333 C15.8755556,172.604444 31.4133333,178.346667 50.6666667,182.737778 Z M57.0844444,184.088889 C73.6355556,187.466667 92.8888889,189.831111 112.817778,191.182222 C114.168889,211.111111 116.533333,230.026667 119.911111,246.915556 C102.008889,244.213333 85.4577778,239.484444 70.9333333,233.066667 C64.5155556,218.542222 59.7866667,201.991111 57.0844444,184.088889 Z M121.262222,253.333333 C125.653333,272.586667 131.733333,288.124444 138.826667,296.568889 C112.817778,291.164444 90.1866667,270.56 74.9866667,240.835556 C88.8355556,246.577778 104.373333,250.968889 121.262222,253.333333 Z M127.68,254.008889 C135.786667,255.022222 143.893333,255.36 152,255.36 C160.444444,255.36 168.551111,255.022222 176.32,254.008889 C169.564444,281.706667 160.444444,297.92 152,297.92 C143.555556,297.92 134.435556,281.706667 127.68,254.008889 Z M182.737778,253.333333 C199.288889,250.968889 214.826667,246.915556 229.013333,241.173333 C213.813333,270.897778 191.182222,291.502222 165.173333,296.906667 C172.604444,288.124444 178.346667,272.586667 182.737778,253.333333 Z M184.088889,246.915556 C187.466667,230.364444 189.831111,211.111111 191.182222,191.182222 C211.111111,189.831111 230.026667,187.466667 246.915556,184.088889 C244.213333,201.991111 239.484444,218.542222 233.066667,233.066667 C218.542222,239.484444 201.991111,244.213333 184.088889,246.915556 Z M253.333333,182.737778 C272.586667,178.346667 288.124444,172.266667 296.568889,165.173333 C291.164444,191.182222 270.56,213.813333 240.835556,229.013333 C246.577778,215.164444 250.968889,199.626667 253.333333,182.737778 Z M254.008889,176.32 C255.022222,168.213333 255.36,160.106667 255.36,152 C255.36,143.555556 255.022222,135.448889 254.008889,127.68 C281.706667,134.435556 297.92,143.555556 297.92,152 C297.92,160.444444 281.706667,169.564444 254.008889,176.32 Z M112.817778,11.4844444 C93.9022222,22.9688889 77.6888889,42.2222222 66.5422222,66.5422222 C42.2222222,78.0266667 22.6311111,93.9022222 11.4844444,112.817778 C24.9955556,63.84 63.84,24.9955556 112.817778,11.4844444 Z M11.4844444,191.182222 C22.9688889,210.097778 42.2222222,226.311111 66.5422222,237.457778 C78.0266667,261.777778 93.9022222,281.368889 112.817778,292.515556 C63.84,279.004444 24.9955556,240.16 11.4844444,191.182222 Z M191.182222,292.515556 C210.097778,281.031111 226.311111,261.777778 237.457778,237.457778 C261.777778,225.973333 281.368889,210.097778 292.515556,191.182222 C279.004444,240.16 240.16,279.004444 191.182222,292.515556 Z" id="Shape"></path>
            </g>
            <g id="Group-14" transform="translate(88.000000, 100.000000)">
                <path d="M64.5,120 C28.8776336,120 0,93.137085 0,60 C0,26.862915 28.8776336,0 64.5,0 C100.122366,0 129,26.862915 129,60 C129,93.137085 100.122366,120 64.5,120 Z M61.136,84.448 L61.136,91.488 L65.104,91.488 L65.104,84.448 C67.4080115,84.3199994 69.530657,83.9360032 71.472,83.296 C73.413343,82.6559968 75.1093261,81.7493392 76.56,80.576 C78.0106739,79.4026608 79.1413293,77.9946749 79.952,76.352 C80.7626707,74.7093251 81.168,72.8426771 81.168,70.752 C81.168,68.4479885 80.7520042,66.5386742 79.92,65.024 C79.0879958,63.5093258 77.9466739,62.2506717 76.496,61.248 C75.0453261,60.2453283 73.3386765,59.4346698 71.376,58.816 C69.4133235,58.1973302 67.3226778,57.6320026 65.104,57.12 L65.104,44.192 C69.2426874,44.8320032 71.5679974,46.922649 72.08,50.464 L80.144,50.464 C79.802665,46.7093146 78.3626794,43.7546774 75.824,41.6 C73.2853206,39.4453226 69.712023,38.197335 65.104,37.856 L65.104,32.864 L61.136,32.864 L61.136,37.792 C58.8746554,37.8773338 56.7946762,38.2186637 54.896,38.816 C52.9973238,39.4133363 51.3546736,40.2559946 49.968,41.344 C48.5813264,42.4320054 47.5040038,43.7439923 46.736,45.28 C45.9679962,46.8160077 45.584,48.5653235 45.584,50.528 C45.584,52.7893446 45.9786627,54.6559926 46.768,56.128 C47.5573373,57.6000074 48.6453264,58.8159952 50.032,59.776 C51.4186736,60.7360048 53.0506573,61.5146637 54.928,62.112 C56.8053427,62.7093363 58.8319891,63.2639974 61.008,63.776 C61.0506669,63.8186669 61.0933331,63.84 61.136,63.84 L61.136,77.856 C58.3199859,77.514665 56.2186736,76.640007 54.832,75.232 C53.4453264,73.823993 52.6026682,71.9040122 52.304,69.472 L43.92,69.472 C44.0053338,71.4773434 44.4213296,73.3439914 45.168,75.072 C45.9146704,76.8000086 46.991993,78.3253267 48.4,79.648 C49.808007,80.9706733 51.578656,82.0586624 53.712,82.912 C55.845344,83.7653376 58.3199859,84.2773325 61.136,84.448 Z M72.784,71.2 C72.784,72.1813382 72.5813354,73.0559962 72.176,73.824 C71.7706646,74.5920038 71.2160035,75.2639971 70.512,75.84 C69.8079965,76.4160029 68.9973379,76.874665 68.08,77.216 C67.1626621,77.557335 66.170672,77.7919994 65.104,77.92 L65.104,64.8 C66.3413395,65.141335 67.4399952,65.4933315 68.4,65.856 C69.3600048,66.2186685 70.1599968,66.6346643 70.8,67.104 C71.4400032,67.5733357 71.930665,68.1386634 72.272,68.8 C72.613335,69.4613366 72.784,70.2613286 72.784,71.2 Z M53.84,50.144 C53.84,48.3946579 54.4906602,46.9973386 55.792,45.952 C57.0933398,44.9066614 58.8746554,44.2773344 61.136,44.064 L61.136,56.224 C58.6186541,55.5413299 56.7733392,54.762671 55.6,53.888 C54.4266608,53.013329 53.84,51.7653414 53.84,50.144 Z" id="Combined-Shape"></path>
            </g>
        </g>
    </g>
</svg>