<?xml version="1.0" encoding="utf-8"?>
<!-- Generator: Adobe Illustrator 22.0.0, SVG Export Plug-In . SVG Version: 6.00 Build 0)  -->
<svg version="1.1" id="Layer_1" xmlns="http://www.w3.org/2000/svg" xmlns:xlink="http://www.w3.org/1999/xlink" x="0px" y="0px"
	 viewBox="0 0 1100 1100" style="enable-background:new 0 0 1100 1100;" xml:space="preserve">
<style type="text/css">
	.st0{opacity:0.5145;}
	.st1{fill:none;stroke:#454341;stroke-width:3;}
	.st2{fill:#454341;stroke:#454341;}
	.st3{fill:none;stroke:#454341;stroke-width:3;stroke-linecap:square;}
	.st4{fill:none;stroke:#454341;stroke-width:2;stroke-linecap:square;}
</style>
<title>Group 7</title>
<desc>Created with Sketch.</desc>
<g id="_x31_02_x5F_Storytelling-Toronto---Home-Copy-2" transform="translate(0.000000, -2476.000000)" class="st0">
	<g id="Group-7" transform="translate(-64.000000, 2478.000000)">
		<circle id="Oval-3" class="st1" cx="632" cy="754" r="50"/>
		<circle id="Oval-3-Copy" class="st1" cx="393.5" cy="683.5" r="55.5"/>
		<circle id="Oval-3-Copy-2" class="st1" cx="437" cy="412" r="44"/>
		<circle id="Oval-3-Copy-3" class="st1" cx="813" cy="395" r="57"/>
		<circle id="Oval-3-Copy-4" class="st1" cx="896" cy="679" r="50"/>
		<circle id="Oval-3-Copy-5" class="st1" cx="287.5" cy="570.5" r="54.5"/>
		<ellipse id="Oval-3-Copy-6" class="st1" cx="244.5" cy="741" rx="41.5" ry="41"/>
		<circle id="Oval-3-Copy-7" class="st1" cx="436.5" cy="909.5" r="35.5"/>
		<circle id="Oval-3-Copy-10" class="st1" cx="249.5" cy="402.5" r="32.5"/>
		<circle id="Oval-3-Copy-11" class="st1" cx="649.5" cy="379.5" r="32.5"/>
		<circle id="Oval-3-Copy-12" class="st1" cx="1022" cy="598" r="38"/>
		<circle id="Oval-3-Copy-13" class="st1" cx="813" cy="532" r="38"/>
		<circle id="Oval-3-Copy-14" class="st1" cx="794.5" cy="803.5" r="37.5"/>
		<circle id="Oval-3-Copy-15" class="st1" cx="665" cy="933" r="32"/>
		<circle id="Oval-3-Copy-16" class="st1" cx="542.5" cy="319.5" r="32.5"/>
		<circle id="Oval-3-Copy-17" class="st1" cx="736.5" cy="265.5" r="32.5"/>
		<circle id="Oval-3-Copy-18" class="st1" cx="720.5" cy="667.5" r="32.5"/>
		<circle id="Oval-3-Copy-19" class="st1" cx="480" cy="806" r="28"/>
		<circle id="Oval-3-Copy-20" class="st1" cx="871" cy="281" r="28"/>
		<circle id="Oval-3-Copy-21" class="st1" cx="987" cy="454" r="32"/>
		<circle id="Oval-3-Copy-22" class="st1" cx="932" cy="883" r="28"/>
		<circle id="Oval-3-Copy-23" class="st1" cx="1047.5" cy="765.5" r="29.5"/>
		<circle id="Oval-4" class="st2" cx="561" cy="894" r="8"/>
		<circle id="Oval-4-Copy" class="st2" cx="328" cy="803" r="8"/>
		<circle id="Oval-4-Copy-2" class="st2" cx="527.5" cy="693.5" r="8.5"/>
		<circle id="Oval-4-Copy-3" class="st2" cx="917" cy="547" r="8"/>
		<circle id="Oval-4-Copy-4" class="st2" cx="1132" cy="679" r="8"/>
		<circle id="Oval-4-Copy-5" class="st2" cx="602" cy="258" r="8"/>
		<circle id="Oval-4-Copy-6" class="st2" cx="347" cy="318" r="8"/>
		<circle id="Oval-4-Copy-7" class="st2" cx="375" cy="510" r="8"/>
		<path id="Line" class="st3" d="M1022.3,749.3l-82.5-44.5"/>
		<path id="Line-Copy" class="st4" d="M1124.3,673.3l-69.5-56.5"/>
		
			<g id="Group-18" transform="translate(770.000000, 80.500000) rotate(-17.000000) translate(-770.000000, -80.500000) translate(727.000000, 45.000000)">
			<circle id="Oval-4-Copy-10" class="st2" cx="181.1" cy="338.2" r="8"/>
			<path id="Line-Copy-42" class="st4" d="M176.2,334.8l-72.4-58.9"/>
		</g>
		<path id="Line-Copy-4" class="st4" d="M635,348l-30.3-84.7"/>
		<path id="Line-Copy-5" class="st4" d="M409,378l-56-54"/>
		<path id="Line-Copy-7" class="st4" d="M414,451l-34,52"/>
		<path id="Line-Copy-8" class="st4" d="M606,800l-41,86"/>
		<path id="Line-Copy-9" class="st4" d="M587,728l-51-31"/>
		<path id="Line-Copy-33" class="st4" d="M518,694h-69"/>
		<path id="Line-Copy-34" class="st4" d="M968,479l-47,63"/>
		<path id="Line-Copy-40" class="st4" d="M908,547l-56.1-9.7"/>
		<path id="Line-Copy-41" class="st4" d="M451,877l21-44"/>
		<path id="Line-Copy-36" class="st4" d="M991.6,486l21.9,74"/>
		<path id="Line-Copy-37" class="st4" d="M870,389l86.5,48"/>
		<path id="Line-Copy-12" class="st4" d="M469,380l48-41"/>
		<path id="Line-Copy-13" class="st4" d="M841,344l17.4-38"/>
		<path id="Line-Copy-14" class="st4" d="M781,346l-27.5-52.8"/>
		<path id="Line-Copy-15" class="st3" d="M773,771l-40.3-71.3"/>
		<path id="Line-Copy-16" class="st3" d="M905.6,870.1l-76.9-50.3"/>
		<path id="Line-Copy-17" class="st3" d="M469,779l-46.5-45.5"/>
		<path id="Line-Copy-18" class="st3" d="M508,796l75.3-23.2"/>
		<path id="Line-Copy-19" class="st3" d="M670.7,718.3l24.6-25.6"/>
		<path id="Line-Copy-20" class="st3" d="M690.4,911.1l78.9-77.4"/>
		<path id="Line-Copy-21" class="st3" d="M662.3,899.3l-23.5-94.5"/>
		<path id="Line-Copy-22" class="st3" d="M254.8,699.3l18.5-75.5"/>
		<path id="Line-Copy-24" class="st3" d="M179.7,506.3l212.5-82.5"/>
		<path id="Line-Copy-25" class="st3" d="M283.7,402.6l108.5,3.8"/>
		<path id="Line-Copy-26" class="st3" d="M342.6,562.3L530,542.8"/>
		<path id="Line-Copy-27" class="st3" d="M436.5,645.5l106.4-60.8"/>
		<path id="Line-Copy-39" class="st3" d="M539.8,519.8l-66.4-79.3"/>
		<path id="Line-Copy-28" class="st3" d="M624.3,703.3V581.7"/>
		<path id="Line-Copy-29" class="st3" d="M850.3,658.3L634.4,544.9"/>
		<path id="Line-Copy-30" class="st3" d="M985.3,612.7l-45.5,35.5"/>
		<path id="Line-Copy-31" class="st3" d="M811,452v39.3"/>
		<path id="Line-Copy-35" class="st3" d="M760.3,419.7l-140.4,90.5"/>
		<path id="Line-Copy-32" class="st3" d="M714.3,292.7L671,355.2"/>
		<path id="Line-Copy-2" class="st3" d="M925.3,854.3l-20.5-124.5"/>
		<path id="Line-Copy-38" class="st3" d="M819.7,773.3l46.5-54.5"/>
		<path id="Line-Copy-3" class="st4" d="M408.3,885.3l-74.5-75.5"/>
		<circle id="Oval-4-Copy-7_1_" class="st2" cx="183.9" cy="505.2" r="8"/>
		<circle id="Oval-3-Copy-3_1_" class="st1" cx="582.4" cy="550.4" r="52.4"/>
	</g>
</g>
</svg>
