<svg xmlns="http://www.w3.org/2000/svg" xmlns:xlink="http://www.w3.org/1999/xlink" id="Layer_1" x="0" y="0" version="1.1" viewBox="0 0 1100 1100" xml:space="preserve" style="enable-background:new 0 0 1100 1100"><style type="text/css">.st0{opacity:.5145}.st1{fill:none;stroke:#454341;stroke-width:3}.st2,.st3,.st4{fill:#454341;stroke:#454341}.st3,.st4{fill:none;stroke-width:3;stroke-linecap:square}.st4{stroke-width:2}</style><title>Group 7</title><desc>Created with Sketch.</desc><g id="_x31_02_x5F_Storytelling-Toronto---Home-Copy-2" class="st0" transform="translate(0.000000, -2476.000000)"><g id="Group-7" transform="translate(-64.000000, 2478.000000)"><circle id="Oval-3" cx="632" cy="754" r="50" class="st1"/><circle id="Oval-3-Copy" cx="393.5" cy="683.5" r="55.5" class="st1"/><circle id="Oval-3-Copy-2" cx="437" cy="412" r="44" class="st1"/><circle id="Oval-3-Copy-3" cx="813" cy="395" r="57" class="st1"/><circle id="Oval-3-Copy-4" cx="896" cy="679" r="50" class="st1"/><circle id="Oval-3-Copy-5" cx="287.5" cy="570.5" r="54.5" class="st1"/><ellipse id="Oval-3-Copy-6" cx="244.5" cy="741" class="st1" rx="41.5" ry="41"/><circle id="Oval-3-Copy-7" cx="436.5" cy="909.5" r="35.5" class="st1"/><circle id="Oval-3-Copy-10" cx="249.5" cy="402.5" r="32.5" class="st1"/><circle id="Oval-3-Copy-11" cx="649.5" cy="379.5" r="32.5" class="st1"/><circle id="Oval-3-Copy-12" cx="1022" cy="598" r="38" class="st1"/><circle id="Oval-3-Copy-13" cx="813" cy="532" r="38" class="st1"/><circle id="Oval-3-Copy-14" cx="794.5" cy="803.5" r="37.5" class="st1"/><circle id="Oval-3-Copy-15" cx="665" cy="933" r="32" class="st1"/><circle id="Oval-3-Copy-16" cx="542.5" cy="319.5" r="32.5" class="st1"/><circle id="Oval-3-Copy-17" cx="736.5" cy="265.5" r="32.5" class="st1"/><circle id="Oval-3-Copy-18" cx="720.5" cy="667.5" r="32.5" class="st1"/><circle id="Oval-3-Copy-19" cx="480" cy="806" r="28" class="st1"/><circle id="Oval-3-Copy-20" cx="871" cy="281" r="28" class="st1"/><circle id="Oval-3-Copy-21" cx="987" cy="454" r="32" class="st1"/><circle id="Oval-3-Copy-22" cx="932" cy="883" r="28" class="st1"/><circle id="Oval-3-Copy-23" cx="1047.5" cy="765.5" r="29.5" class="st1"/><circle id="Oval-4" cx="561" cy="894" r="8" class="st2"/><circle id="Oval-4-Copy" cx="328" cy="803" r="8" class="st2"/><circle id="Oval-4-Copy-2" cx="527.5" cy="693.5" r="8.5" class="st2"/><circle id="Oval-4-Copy-3" cx="917" cy="547" r="8" class="st2"/><circle id="Oval-4-Copy-4" cx="1132" cy="679" r="8" class="st2"/><circle id="Oval-4-Copy-5" cx="602" cy="258" r="8" class="st2"/><circle id="Oval-4-Copy-6" cx="347" cy="318" r="8" class="st2"/><circle id="Oval-4-Copy-7" cx="375" cy="510" r="8" class="st2"/><path id="Line" d="M1022.3,749.3l-82.5-44.5" class="st3"/><path id="Line-Copy" d="M1124.3,673.3l-69.5-56.5" class="st4"/><g id="Group-18" transform="translate(770.000000, 80.500000) rotate(-17.000000) translate(-770.000000, -80.500000) translate(727.000000, 45.000000)"><circle id="Oval-4-Copy-10" cx="181.1" cy="338.2" r="8" class="st2"/><path id="Line-Copy-42" d="M176.2,334.8l-72.4-58.9" class="st4"/></g><path id="Line-Copy-4" d="M635,348l-30.3-84.7" class="st4"/><path id="Line-Copy-5" d="M409,378l-56-54" class="st4"/><path id="Line-Copy-7" d="M414,451l-34,52" class="st4"/><path id="Line-Copy-8" d="M606,800l-41,86" class="st4"/><path id="Line-Copy-9" d="M587,728l-51-31" class="st4"/><path id="Line-Copy-33" d="M518,694h-69" class="st4"/><path id="Line-Copy-34" d="M968,479l-47,63" class="st4"/><path id="Line-Copy-40" d="M908,547l-56.1-9.7" class="st4"/><path id="Line-Copy-41" d="M451,877l21-44" class="st4"/><path id="Line-Copy-36" d="M991.6,486l21.9,74" class="st4"/><path id="Line-Copy-37" d="M870,389l86.5,48" class="st4"/><path id="Line-Copy-12" d="M469,380l48-41" class="st4"/><path id="Line-Copy-13" d="M841,344l17.4-38" class="st4"/><path id="Line-Copy-14" d="M781,346l-27.5-52.8" class="st4"/><path id="Line-Copy-15" d="M773,771l-40.3-71.3" class="st3"/><path id="Line-Copy-16" d="M905.6,870.1l-76.9-50.3" class="st3"/><path id="Line-Copy-17" d="M469,779l-46.5-45.5" class="st3"/><path id="Line-Copy-18" d="M508,796l75.3-23.2" class="st3"/><path id="Line-Copy-19" d="M670.7,718.3l24.6-25.6" class="st3"/><path id="Line-Copy-20" d="M690.4,911.1l78.9-77.4" class="st3"/><path id="Line-Copy-21" d="M662.3,899.3l-23.5-94.5" class="st3"/><path id="Line-Copy-22" d="M254.8,699.3l18.5-75.5" class="st3"/><path id="Line-Copy-24" d="M179.7,506.3l212.5-82.5" class="st3"/><path id="Line-Copy-25" d="M283.7,402.6l108.5,3.8" class="st3"/><path id="Line-Copy-26" d="M342.6,562.3L530,542.8" class="st3"/><path id="Line-Copy-27" d="M436.5,645.5l106.4-60.8" class="st3"/><path id="Line-Copy-39" d="M539.8,519.8l-66.4-79.3" class="st3"/><path id="Line-Copy-28" d="M624.3,703.3V581.7" class="st3"/><path id="Line-Copy-29" d="M850.3,658.3L634.4,544.9" class="st3"/><path id="Line-Copy-30" d="M985.3,612.7l-45.5,35.5" class="st3"/><path id="Line-Copy-31" d="M811,452v39.3" class="st3"/><path id="Line-Copy-35" d="M760.3,419.7l-140.4,90.5" class="st3"/><path id="Line-Copy-32" d="M714.3,292.7L671,355.2" class="st3"/><path id="Line-Copy-2" d="M925.3,854.3l-20.5-124.5" class="st3"/><path id="Line-Copy-38" d="M819.7,773.3l46.5-54.5" class="st3"/><path id="Line-Copy-3" d="M408.3,885.3l-74.5-75.5" class="st4"/><circle id="Oval-4-Copy-7_1_" cx="183.9" cy="505.2" r="8" class="st2"/><circle id="Oval-3-Copy-3_1_" cx="582.4" cy="550.4" r="52.4" class="st1"/></g></g></svg>