<?xml version="1.0" encoding="UTF-8"?>
<svg width="39px" height="26px" viewBox="0 0 39 26" version="1.1" xmlns="http://www.w3.org/2000/svg" xmlns:xlink="http://www.w3.org/1999/xlink">
    <!-- Generator: Sketch 48.2 (47327) - http://www.bohemiancoding.com/sketch -->
    <title>noun_569450</title>
    <desc>Created with Sketch.</desc>
    <defs></defs>
    <g id="Artboard" stroke="none" stroke-width="1" fill="none" fill-rule="evenodd" transform="translate(0.000000, -8.000000)">
        <g id="noun_569450" transform="translate(0.000000, 8.000000)" fill="#000000" fill-rule="nonzero">
            <path d="M38.9203434,10.9774674 L33.7623857,2.04370575 C33.6172193,1.79172336 33.3121532,1.68610987 33.0439203,1.79303805 C33.0300536,1.79873504 31.6095894,2.36229913 30.1154587,2.36229913 C29.5404264,2.36229913 28.8228276,2.01127671 27.990829,1.60503728 C26.8446644,1.04541726 25.4181335,0.348631182 23.7571697,0.348631182 C22.234439,0.348631182 20.9439746,0.788176112 19.8706098,1.42536288 C18.7292118,0.612884016 17.4634473,0.138280667 16.101483,0.0217114232 C14.4474525,-0.118960484 12.9676218,0.452491748 11.7781238,0.912633499 C10.9162253,1.24656494 10.1734933,1.53842628 9.59802759,1.48540042 C8.11733016,1.35875188 6.74019921,0.67555094 6.72719924,0.668977486 C6.46979968,0.539699566 6.15693356,0.619457469 5.99096718,0.85785472 L0.106310713,9.31920418 C-0.0687556501,9.5703101 -0.0232557289,9.91563553 0.210743865,10.1119627 L6.46416636,15.3540728 L6.44813305,15.3702873 C5.98620052,15.837879 5.73140096,16.458413 5.73140096,17.1192642 C5.73140096,17.7805536 5.98620052,18.4019641 6.44769972,18.8686793 C6.90963225,19.3353945 7.52409786,19.5930739 8.17756339,19.5930739 C8.32359647,19.5930739 8.46746289,19.5781741 8.60829598,19.5527567 C8.6113293,20.2092256 8.8652622,20.8258156 9.3241614,21.2903396 C9.78609393,21.7570548 10.4005595,22.0147342 11.0540251,22.0147342 C11.263758,22.0147342 11.4691577,21.985811 11.6671907,21.9332234 C11.7018573,22.5165078 11.9358569,23.089713 12.3756894,23.5336402 C12.837622,24.0007936 13.4516542,24.2575966 14.1051198,24.2575966 C14.2702195,24.2575966 14.4322859,24.2413821 14.5904523,24.2098295 C15.6716171,25.5731637 17.0639147,26 18.2954459,26 C19.0953778,26 19.8264099,25.8207638 20.3607089,25.6029634 C20.7676082,25.7379383 21.2104741,25.811561 21.6589734,25.811561 C22.6339717,25.811561 23.5465701,25.4741237 24.1597357,24.9153802 C24.4513685,25.0363317 24.765968,25.1003133 25.0909674,25.1003133 C25.7448663,25.1003133 26.3588985,24.8435104 26.8199644,24.376357 C27.1718305,24.0209522 27.4023634,23.577025 27.4929299,23.0940953 C27.8651626,23.3070752 28.2807285,23.4157563 28.6971612,23.4157563 C29.3228934,23.4157563 29.950359,23.1747296 30.4265915,22.6931146 C30.8356574,22.2794253 31.081357,21.7439079 31.1329236,21.1685116 C31.3621565,21.2395049 31.6043894,21.2763163 31.8509557,21.2763163 C32.5044212,21.2763163 33.1193202,21.0190751 33.580386,20.5523599 C34.0423186,20.0852065 34.2971181,19.4642342 34.2971181,18.803383 C34.2971181,18.1420936 34.0423186,17.5206831 33.580386,17.0539679 L32.612321,16.0745233 L38.7491771,11.7575172 C38.9996433,11.5826634 39.0737432,11.2421585 38.9203434,10.9774674 Z M9.08322849,18.0356036 C8.84142891,18.2810126 8.5194628,18.415111 8.17756339,18.415111 C7.83523065,18.415111 7.51413121,18.2805743 7.27146496,18.0356036 C7.02966538,17.7910712 6.89663228,17.4659043 6.89663228,17.1192642 C6.89663228,16.7735005 7.03009871,16.4487719 7.27146496,16.203363 L8.38166304,15.0810554 C8.62389595,14.8360847 8.94542872,14.701548 9.28732813,14.701548 C9.6300942,14.701548 9.95162698,14.8365229 10.1934266,15.0810554 C10.4356595,15.3260261 10.5682592,15.6507547 10.5682592,15.9969566 C10.5682592,16.3427202 10.4347928,16.6678871 10.1934266,16.9128578 L9.08322849,18.0356036 Z M12.3748228,20.0383158 L11.9601235,20.4585786 C11.7178906,20.7031111 11.3963578,20.8372096 11.0544584,20.8372096 C10.7121257,20.8372096 10.3905929,20.7022346 10.14836,20.4585786 C9.90612706,20.2131697 9.77309396,19.8880029 9.77309396,19.5422392 C9.77309396,19.1960373 9.90656039,18.8708705 10.14836,18.6258998 L12.6452223,16.1003789 C12.8874552,15.8558464 13.208988,15.7213097 13.5513207,15.7213097 C13.8932201,15.7213097 14.2151863,15.8562847 14.4574192,16.1008171 C14.6992188,16.3453496 14.8322519,16.6709547 14.8322519,17.0167183 C14.8322519,17.3620438 14.6992188,17.6858959 14.4587192,17.9308666 L12.3765561,20.0374394 C12.3761228,20.0374394 12.3756894,20.0383158 12.3748228,20.0383158 Z M14.1055531,23.0813866 C13.7636537,23.0813866 13.4421209,22.9464117 13.199888,22.7027557 C12.7011222,22.1987909 12.7011222,21.3784239 13.198588,20.872268 L15.2807511,18.7661334 C15.2820511,18.7643805 15.2833511,18.7626276 15.2846511,18.7617511 L15.6971837,18.3441177 C15.9389833,18.0995852 16.260516,17.9654868 16.6032821,17.9654868 C16.9447482,17.9654868 17.2667143,18.1004617 17.5089472,18.3449942 C17.7507468,18.5895267 17.8837799,18.9151317 17.8837799,19.2608954 C17.8837799,19.606659 17.7503135,19.9318259 17.5085139,20.1767966 L15.0116515,22.7027557 C14.7694186,22.9464117 14.4478859,23.0813866 14.1055531,23.0813866 Z M18.4757122,23.9832644 C18.5571787,24.2632936 18.7231451,24.5209729 18.9879113,24.7698877 C18.0701129,24.9254595 16.7449819,24.8632308 15.6768171,23.681762 C15.7309836,23.6361861 15.7847169,23.5875425 15.8354168,23.5362696 L18.3327125,21.0107487 C18.3634791,20.9796344 18.3912124,20.9463289 18.4198123,20.9130234 C19.2921108,21.6071801 19.0984111,21.9546967 18.8007116,22.484517 C18.5766787,22.8819918 18.2984792,23.3780685 18.4757122,23.9832644 Z M32.7583541,17.8870436 C32.9997204,18.1320143 33.1327535,18.4571811 33.1327535,18.803383 C33.1327535,19.1487084 32.999287,19.4738753 32.7583541,19.7192842 C32.5156879,19.9646931 32.1945884,20.0979151 31.8522557,20.0979151 C31.5103563,20.0979151 31.1883902,19.9633785 30.9461573,19.7192842 L25.158134,13.8662811 C24.9310677,13.6366485 24.5623017,13.6366485 24.334802,13.8662811 C24.1073024,14.0954756 24.1073024,14.4688477 24.334802,14.6989186 L29.6015263,20.0251689 C29.6023929,20.0269218 29.6032596,20.0277983 29.6041262,20.0286748 C29.8467925,20.2736455 29.9798256,20.5988123 29.9798256,20.944576 C29.9798256,21.2907779 29.8459258,21.6159447 29.6041262,21.8609154 C29.3618933,22.1054479 29.0403606,22.2399845 28.6984612,22.2399845 C28.3565617,22.2399845 28.035029,22.1050096 27.7927961,21.8609154 L26.8234311,20.8810326 C26.8225644,20.8801561 26.8216977,20.8784032 26.8208311,20.8784032 C26.8208311,20.8775267 26.8199644,20.8775267 26.8190977,20.8766503 L23.3710704,17.3896523 C23.1440041,17.1600196 22.7752381,17.1600196 22.5477385,17.3896523 C22.3206722,17.6188467 22.3206722,17.9922188 22.5477385,18.2222897 L26.0000992,21.7145465 C26.2405987,21.9599554 26.3723319,22.2833693 26.3723319,22.6278183 C26.3723319,22.9740202 26.2384321,23.299187 25.9974992,23.5441577 C25.7552663,23.7895667 25.4337335,23.9232269 25.0918341,23.9232269 L25.0909674,23.9232269 C24.749068,23.9232269 24.4279686,23.788252 24.1853023,23.5441577 L22.0680393,21.4029648 C21.840973,21.1733321 21.4717737,21.1733321 21.2442741,21.4029648 C21.0172078,21.6330357 21.0172078,22.0064078 21.2442741,22.2360405 L23.185604,24.1988737 C22.7895381,24.4701382 22.2374724,24.6344746 21.6589734,24.6344746 C21.275474,24.6344746 20.9006413,24.5643577 20.5730419,24.4333269 C19.7505767,23.9959731 19.6140769,23.7220792 19.5919769,23.6484565 C19.558177,23.5323255 19.6574102,23.3430101 19.8129766,23.0656103 C20.3056757,22.1891498 20.6718417,21.1536118 18.973178,19.8608326 C19.0208446,19.6666966 19.0485779,19.4659871 19.0485779,19.2604572 C19.0485779,18.5991677 18.7942117,17.9786337 18.3322791,17.5114803 C17.8707799,17.0443268 17.2563143,16.7866475 16.6028488,16.7866475 C16.3931158,16.7866475 16.1877162,16.8160089 15.9896832,16.8681583 C15.9545832,16.2629623 15.7075837,15.6998365 15.2803177,15.2681797 C14.8188185,14.8014645 14.2043529,14.5437851 13.5508874,14.5437851 C12.8974219,14.5437851 12.2829563,14.8014645 11.8210237,15.2681797 L11.6654573,15.4255043 C11.5623242,14.98333 11.3426246,14.5775288 11.0171918,14.2479797 C10.5556926,13.7808262 9.941227,13.5240233 9.28732813,13.5240233 C8.6338626,13.5240233 8.01983033,13.7808262 7.5578978,14.2479797 L7.2879316,14.5209971 C7.27406496,14.5065355 7.26149831,14.4920739 7.24589834,14.4780506 L1.36860853,9.5514662 L6.66913267,1.93108058 C7.25629832,2.17561305 8.33442978,2.55994097 9.50009443,2.65941923 C10.337293,2.72822138 11.2403581,2.38201949 12.1949898,2.01302963 C13.3290211,1.57392293 14.6129856,1.07477869 16.0035498,1.19573023 C17.0140814,1.28206159 17.9626464,1.60372259 18.8358116,2.14625162 C17.7035135,3.0603999 16.8914483,4.14896382 16.3783825,4.97239843 C16.0997497,5.41983151 13.6722205,9.4050973 14.3109528,11.4170123 C14.4630525,11.8951215 14.7754853,12.2435146 15.2148845,12.4249419 C15.5368506,12.5581639 15.8657501,12.6252131 16.1924828,12.6252131 C17.7286468,12.6252131 18.8917115,11.1939531 20.0153429,9.81002204 C20.8382414,8.7963955 21.68714,7.75209284 22.5152385,7.52815719 L27.8088294,12.8824543 L28.3695617,13.449086 L31.2967233,16.4097694 C31.29759,16.4097694 31.29759,16.4097694 31.29759,16.4097694 L32.7583541,17.8870436 Z M31.7759892,15.2278625 L28.6330279,12.0489403 C28.6321613,12.0485021 28.6321613,12.0485021 28.6317279,12.0480639 L23.1288375,6.48297807 C23.0192043,6.37210582 22.8701379,6.31031536 22.7171715,6.31031536 C22.7046049,6.31031536 22.6907382,6.31075359 22.6781716,6.31163005 C21.2724407,6.40628778 20.1756759,7.75647514 19.1148778,9.06240126 C18.1624127,10.2346671 17.1774478,11.446812 16.1920495,11.446812 C16.0148165,11.446812 15.8393168,11.4100006 15.6547171,11.3337486 C15.5671839,11.2973755 15.4779174,11.2386526 15.4202842,11.0563488 C15.1013514,10.0519251 16.1842495,7.49528992 17.3646475,5.59994414 C18.3123458,4.07884698 20.4027422,1.52615583 23.7571697,1.52615583 C25.151634,1.52615583 26.3900985,2.13179002 27.4842633,2.66599269 C28.4046617,3.11517868 29.2739268,3.53982378 30.1154587,3.53982378 C31.2854567,3.53982378 32.3917548,3.2488389 32.996687,3.05557937 L37.642879,11.1010483 L31.7759892,15.2278625 Z" id="Shape"></path>
        </g>
    </g>
</svg>