<?xml version="1.0" encoding="utf-8"?>
<!-- Generator: Adobe Illustrator 22.0.0, SVG Export Plug-In . SVG Version: 6.00 Build 0)  -->
<svg version="1.1" id="Layer_1" xmlns="http://www.w3.org/2000/svg" xmlns:xlink="http://www.w3.org/1999/xlink" x="0px" y="0px"
	 viewBox="0 0 165 25" style="enable-background:new 0 0 165 25;" xml:space="preserve">
<style type="text/css">
	.st0{fill:#FFFFFF;}
	.st1{filter:url(#Adobe_OpacityMaskFilter);}
	.st2{mask:url(#mask-2_1_);fill:#FFFFFF;}
	.st3{filter:url(#Adobe_OpacityMaskFilter_1_);}
	.st4{mask:url(#mask-4_1_);fill:#FFFFFF;}
	.st5{fill:#C51718;}
</style>
<title>Page 1</title>
<desc>Created with Sketch.</desc>
<g id="_x31_02_x5F_Storytelling-Toronto---Home-Copy-2" transform="translate(-209.000000, -4134.000000)">
	<g id="Page-1" transform="translate(209.000000, 4134.000000)">
		<path id="Fill-1" class="st0" d="M164.4,23.9h-3.6l-3.7-6.4c-1.1-1.9-1.9-3-2.6-3.1h-2.3v9.5H149v-23h5.2c2.3,0,3.9,0.4,5.1,1.1
			c2,1.2,2.9,3.1,2.9,5.2c0,3.2-1.7,5.2-4.6,6v0.1c0.7,0.4,1.6,1.6,2.8,3.7L164.4,23.9z M154.1,11.8c1.2,0,2.1-0.2,2.9-0.7
			c1.1-0.6,1.9-1.8,1.9-3.5c0-1.3-0.5-2.4-1.5-3.2c-0.7-0.5-1.7-0.9-3.3-0.9h-2.1v8.4H154.1z"/>
		<path id="Fill-3" class="st0" d="M41,1L41,1L41,1L39.9,1h0V1l-8.6,22.8h3.2l2.2-6h3.3H41h3.3l2.2,6h3.2L41,1z M37.5,15.3l2.1-5.9
			c0.3-1,0.6-1.7,0.8-2.3c0.2,0.6,0.4,1.4,0.8,2.3l2.1,5.9H37.5z"/>
		<path id="Fill-5" class="st0" d="M80.7,1L80.7,1L80.7,1L79.6,1h0V1l-8.6,22.8h3.2l2.2-6h3.3h1.1h3.3l2.2,6h3.2L80.7,1z M77.2,15.3
			l2.1-5.9c0.3-1,0.6-1.7,0.8-2.3c0.2,0.6,0.4,1.4,0.8,2.3l2.1,5.9H77.2z"/>
		<polygon id="Fill-7" class="st0" points="51.9,0.9 51.9,3.4 58.5,3.4 58.5,23.9 61.6,23.9 61.6,3.4 67.7,3.4 69.2,0.9 		"/>
		<path id="Fill-9" class="st0" d="M96.4,0.9h6c8.1,0,12.2,4.7,12.2,11.4c0,6.7-4.3,11.6-12.4,11.6h-5.8V0.9z M102.3,21.3
			c6.8,0,9.1-4.2,9.1-9.1c0-5.1-2.9-8.7-9.2-8.7h-2.7v17.9H102.3z"/>
		<g id="Group-13" transform="translate(120.060976, 0.579150)">
			<g id="Clip-12">
			</g>
			<defs>
				<filter id="Adobe_OpacityMaskFilter" filterUnits="userSpaceOnUse" x="0.1" y="0.1" width="22.1" height="23.5">
					<feColorMatrix  type="matrix" values="1 0 0 0 0  0 1 0 0 0  0 0 1 0 0  0 0 0 1 0"/>
				</filter>
			</defs>
			<mask maskUnits="userSpaceOnUse" x="0.1" y="0.1" width="22.1" height="23.5" id="mask-2_1_">
				<g class="st1">
					<polygon id="path-1_1_" class="st0" points="0.1,0.1 22.1,0.1 22.1,23.6 0.1,23.6 					"/>
				</g>
			</mask>
			<path id="Fill-11" class="st2" d="M0.1,11.9c0-7,4.7-11.8,11.1-11.8c6.5,0,11,4.9,11,11.8c0,7.1-4.8,11.7-11,11.7
				C4.8,23.6,0.1,19,0.1,11.9 M18.9,11.9c0-5.3-2.9-9.1-7.8-9.1c-4.7,0-7.9,3.6-7.9,9.1c0,5.5,3.1,9.1,7.9,9.1S18.9,17.4,18.9,11.9"
				/>
		</g>
		<g id="Group-16" transform="translate(0.000000, 0.579150)">
			<g id="Clip-15">
			</g>
			<defs>
				<filter id="Adobe_OpacityMaskFilter_1_" filterUnits="userSpaceOnUse" x="0" y="0.3" width="14" height="23">
					<feColorMatrix  type="matrix" values="1 0 0 0 0  0 1 0 0 0  0 0 1 0 0  0 0 0 1 0"/>
				</filter>
			</defs>
			<mask maskUnits="userSpaceOnUse" x="0" y="0.3" width="14" height="23" id="mask-4_1_">
				<g class="st3">
					<polygon id="path-3_1_" class="st0" points="0,0.3 14,0.3 14,23.3 0,23.3 					"/>
				</g>
			</mask>
			<polygon id="Fill-14" class="st4" points="0,0.3 0,23.3 2.9,23.3 2.9,7.7 11.9,17 14,14.8 9.6,10.2 9.6,10.2 0.1,0.3 			"/>
		</g>
		<polygon id="Fill-17" class="st5" points="23.6,0.9 13.4,11.5 15.5,13.8 20.8,8.3 20.8,23.9 23.8,23.9 23.8,0.9 		"/>
	</g>
</g>
</svg>
