<svg xmlns="http://www.w3.org/2000/svg" xmlns:xlink="http://www.w3.org/1999/xlink" width="165" height="25" version="1.1" viewBox="0 0 165 25"><title>Page 1</title><desc>Created with Sketch.</desc><defs><polygon id="path-1" points=".065 .096 22.145 .096 22.145 23.625 .065 23.625"/><polygon id="path-3" points="0 .307 14.006 .307 14.006 23.321 0 23.321"/></defs><g id="102_Storytelling-Toronto---Home-Copy-2" fill="none" fill-rule="evenodd" stroke="none" stroke-width="1" transform="translate(-209.000000, -4134.000000)"><g id="Page-1" transform="translate(209.000000, 4134.000000)"><path id="Fill-1" fill="#FFF" d="M164.361262,23.8548375 L160.760104,23.8548375 L157.017421,17.4754125 C155.947604,15.5584125 155.081018,14.5121625 154.418335,14.3386875 L152.069433,14.3386875 L152.069433,23.8548375 L148.982726,23.8548375 L148.982726,0.8839125 L154.14736,0.8839125 C156.462055,0.8839125 158.02553,1.3030875 159.203335,1.9996875 C161.247726,3.1505625 162.11364,5.1364125 162.11364,7.2275625 C162.11364,10.4000625 160.38114,12.3872625 157.538579,13.2593625 L157.538579,13.3275375 C158.228762,13.7122875 159.095348,14.9657625 160.306689,17.0224875 L164.361262,23.8548375 Z M154.107116,11.7946125 C155.325165,11.7946125 156.225287,11.5516125 157.050957,11.0622375 C158.195226,10.4358375 158.926323,9.2147625 158.926323,7.5427875 C158.926323,6.2177625 158.438701,5.1019875 157.470835,4.3702875 C156.773274,3.8471625 155.771872,3.4286625 154.14736,3.4286625 L152.069433,3.4286625 L152.069433,11.7946125 L154.107116,11.7946125 Z"/><path id="Fill-3" fill="#FFF" d="M40.9894878,1.029105 L40.9894878,0.96363 L40.9646707,0.96363 L39.9216829,0.96363 L39.8968659,0.96363 L39.8968659,1.029105 L31.2531463,23.857605 L34.4545488,23.857605 L36.6196707,17.86563 L39.8968659,17.86563 L40.9894878,17.86563 L44.2673537,17.86563 L46.4324756,23.857605 L49.633878,23.857605 L40.9894878,1.029105 Z M37.5479634,15.337755 L39.6862561,9.415305 C40.0229634,8.463555 40.2597317,7.72173 40.4435122,7.113555 C40.626622,7.72173 40.8633902,8.463555 41.2000976,9.415305 L43.3383902,15.337755 L37.5479634,15.337755 Z"/><path id="Fill-5" fill="#FFF" d="M80.6687683,1.029105 L80.6687683,0.96363 L80.6439512,0.96363 L79.6009634,0.96363 L79.5761463,0.96363 L79.5761463,1.029105 L70.9324268,23.857605 L74.1338293,23.857605 L76.2989512,17.86563 L79.5761463,17.86563 L80.6687683,17.86563 L83.9466341,17.86563 L86.1117561,23.857605 L89.3131585,23.857605 L80.6687683,1.029105 Z M77.2272439,15.337755 L79.3655366,9.415305 C79.7022439,8.463555 79.9390122,7.72173 80.1227927,7.113555 C80.3059024,7.72173 80.5426707,8.463555 80.879378,9.415305 L83.0176707,15.337755 L77.2272439,15.337755 Z"/><polygon id="Fill-7" fill="#FFF" points="51.914 .884 51.914 3.428 58.493 3.428 58.493 23.855 61.58 23.855 61.58 3.428 67.715 3.428 69.183 .884"/><path id="Fill-9" fill="#FFF" d="M96.4319695,0.884115 L102.422274,0.884115 C110.564957,0.884115 114.653067,5.625315 114.653067,12.24774 C114.653067,18.940365 110.389226,23.85504 102.219043,23.85504 L96.4319695,23.85504 L96.4319695,0.884115 Z M102.25325,21.31029 C109.008189,21.31029 111.397335,17.092215 111.397335,12.17754 C111.397335,7.08939 108.453494,3.42819 102.185506,3.42819 L99.5186768,3.42819 L99.5186768,21.31029 L102.25325,21.31029 Z"/><g id="Group-13" transform="translate(120.060976, 0.579150)"><mask id="mask-2" fill="#fff"><use xlink:href="#path-1"/></mask><path id="Fill-11" fill="#FFF" d="M0.0653963415,11.87784 C0.0653963415,4.90644 4.72564024,0.095715 11.1217378,0.095715 C17.5835671,0.095715 22.1445427,5.01039 22.1445427,11.87784 C22.1445427,19.02339 17.3843598,23.624865 11.1217378,23.624865 C4.75917683,23.624865 0.0653963415,18.987615 0.0653963415,11.87784 M18.9464939,11.87784 C18.9464939,6.61419 16.0878354,2.74509 11.1217378,2.74509 C6.39509146,2.74509 3.26344512,6.370515 3.26344512,11.87784 C3.26344512,17.41959 6.39509146,20.974815 11.1217378,20.974815 C15.8483841,20.974815 18.9464939,17.41959 18.9464939,11.87784" mask="url(#mask-2)"/></g><g id="Group-16" transform="translate(0.000000, 0.579150)"><mask id="mask-4" fill="#fff"><use xlink:href="#path-3"/></mask><polygon id="Fill-14" fill="#FFF" points="0 .307 0 23.321 2.94 23.321 2.94 7.667 11.889 16.997 14.006 14.791 9.59 10.158 9.591 10.157 .109 .307" mask="url(#mask-4)"/></g><polygon id="Fill-17" fill="#1A1919" points="23.643 .886 13.401 11.526 15.544 13.765 20.814 8.272 20.814 23.899 23.753 23.899 23.753 .886"/></g></g></svg>