<svg xmlns="http://www.w3.org/2000/svg" xmlns:xlink="http://www.w3.org/1999/xlink" width="264" height="120" version="1.1" viewBox="0 0 264 120"><title>Group 19</title><desc>Created with Sketch.</desc><g id="102_Storytelling-Toronto---Home-Copy-2" fill="none" fill-rule="evenodd" stroke="none" stroke-width="1" transform="translate(-200.000000, -3472.000000)"><g id="Group-20" transform="translate(200.000000, 3472.000000)"><g id="Group-19"><g id="5a46fad33472ef00014b5433_a" fill-rule="nonzero" transform="translate(13.000000, 15.000000)"><path id="Shape" fill="#2A3F7D" d="M62.371134,72.0817996 L65,72.0817996 C66.6701031,72.0817996 67.628866,71.0347648 67.628866,69.6605317 L67.628866,69.6278119 C67.628866,68.0572597 66.5773196,67.206544 64.9381443,67.206544 L62.371134,67.206544 L59.0309278,67.206544 L59.0309278,64 L65.2164948,64 C68.8350515,64 71,66.2576687 71,69.5296524 L71,69.5623722 C71,73.2597137 68.2783505,75.190184 64.8762887,75.190184 L62.3402062,75.190184 L62.3402062,80 L59,80 L59,72.0817996 L62.371134,72.0817996 Z"/><path id="Shape" fill="#2A3F7D" d="M80,72.0632411 L80,72 C80,67.6047431 83.5961538,64 88.5326923,64 C93.4692308,64 97,67.5731225 97,71.9683794 L97,72 C97,76.3952569 93.4038462,80 88.4673077,80 C83.5307692,80 80,76.458498 80,72.0632411 Z M93.3057692,72.0632411 L93.3057692,72 C93.3057692,69.3438735 91.2788462,67.1304348 88.4673077,67.1304348 C85.6230769,67.1304348 83.6615385,69.2806324 83.6615385,71.9367589 L83.6615385,71.9683794 C83.6615385,74.6245059 85.6884615,76.8379447 88.5,76.8379447 C91.3442308,76.8695652 93.3057692,74.7193676 93.3057692,72.0632411 Z"/><polygon id="Shape" fill="#2A3F7D" points="106 64 109.375 64 109.375 76.793 117 76.793 117 80 106 80"/><polygon id="Shape" fill="#2A3F7D" points="130.215 73.685 124 64 128.165 64 132.033 70.413 135.967 64 140 64 133.785 73.62 133.785 80 130.215 80 130.215 73.685"/><polygon id="Shape" fill="#2A3F7D" points="148 64 151.788 64 156 70.773 160.212 64 164 64 164 80 160.506 80 160.506 69.562 156 76.401 155.902 76.401 151.461 69.628 151.461 80 148 80"/><polygon id="Shape" fill="#2A3F7D" points="183.58 73.347 181.451 68.187 179.322 73.347 178.077 76.43 176.603 80 173 80 179.879 64 183.121 64 190 80 186.299 80 184.825 76.43"/><polygon id="Shape" fill="#2A3F7D" points="200.783 67.239 196 67.239 196 64 209 64 209 67.239 204.217 67.239 204.217 80 200.783 80"/><polygon id="Shape" fill="#2A3F7D" points="218 64 221.383 64 221.383 70.348 227.617 70.348 227.617 64 231 64 231 80 227.617 80 227.617 73.587 221.383 73.587 221.383 80 218 80"/><g id="Group" fill="#366FA0" transform="translate(59.000000, 85.000000)"><polygon id="Shape" points="2.287 1.031 2.287 4.844 1.514 4.844 1.514 1.031 .032 1.031 .032 .344 3.769 .344 3.769 1.031"/><polygon id="Shape" points="9.665 4.844 9.665 2.969 7.216 2.969 7.216 4.844 6.443 4.844 6.443 .344 7.216 .344 7.216 2.313 9.665 2.313 9.665 .344 10.438 .344 10.438 4.844"/><polygon id="Shape" points="14.433 1.031 14.433 2.25 16.688 2.25 16.688 2.938 14.433 2.938 14.433 4.188 17.042 4.188 17.042 4.875 13.66 4.875 13.66 .375 16.978 .375 16.978 1.063 14.433 1.063"/><path id="Shape" d="M26.0949721,0.4375 C26.3849162,0.53125 26.6426443,0.625 26.8359404,0.78125 L26.5137803,1.4375 C26.2882682,1.28125 26.03054,1.1875 25.8050279,1.125 C25.5795158,1.0625 25.3540037,1.03125 25.1607076,1.03125 C24.9351955,1.03125 24.7418994,1.0625 24.6130354,1.15625 C24.4841713,1.25 24.4197393,1.34375 24.4197393,1.5 C24.4197393,1.625 24.4519553,1.75 24.5486034,1.84375 C24.6452514,1.9375 24.7418994,2 24.8707635,2.0625 C24.9996276,2.125 25.1929236,2.1875 25.4184358,2.25 C25.7405959,2.34375 25.998324,2.4375 26.1916201,2.53125 C26.3849162,2.625 26.5459963,2.75 26.7070764,2.9375 C26.8359404,3.125 26.9003724,3.34375 26.9003724,3.625 C26.9003724,3.875 26.8359404,4.125 26.6748603,4.3125 C26.5137803,4.5 26.3204842,4.65625 26.0627561,4.78125 C25.8050279,4.875 25.4828678,4.9375 25.1607076,4.9375 C24.8063315,4.9375 24.4519553,4.875 24.1297952,4.75 C23.807635,4.625 23.5176909,4.4375 23.2599628,4.21875 L23.6143389,3.5625 C23.839851,3.78125 24.0975791,3.9375 24.3875233,4.0625 C24.6774674,4.1875 24.9351955,4.21875 25.1929236,4.21875 C25.4828678,4.21875 25.6761639,4.15625 25.8372439,4.0625 C25.998324,3.96875 26.0627561,3.84375 26.0627561,3.65625 C26.0627561,3.53125 26.03054,3.40625 25.933892,3.3125 C25.8372439,3.21875 25.7405959,3.15625 25.5795158,3.09375 C25.4506518,3.03125 25.2573557,2.96875 25.0318436,2.90625 C24.7096834,2.8125 24.4519553,2.71875 24.2586592,2.65625 C24.0653631,2.5625 23.9042831,2.4375 23.775419,2.28125 C23.6465549,2.125 23.5821229,1.90625 23.5821229,1.625 C23.5821229,1.375 23.6465549,1.15625 23.807635,0.96875 C23.9364991,0.78125 24.1620112,0.625 24.3875233,0.53125 C24.6130354,0.4375 24.9351955,0.375 25.2573557,0.375 C25.5150838,0.3125 25.8050279,0.34375 26.0949721,0.4375 Z"/><polygon id="Shape" points="30.605 1.031 30.605 2.25 32.86 2.25 32.86 2.938 30.605 2.938 30.605 4.188 33.215 4.188 33.215 4.875 29.832 4.875 29.832 .375 33.15 .375 33.15 1.063 30.605 1.063"/><path id="Shape" d="M39.1746741,0.5 C39.4968343,0.625 39.7545624,0.78125 39.9800745,1 L39.5290503,1.5625 C39.3679702,1.375 39.1746741,1.25 38.916946,1.15625 C38.6914339,1.0625 38.4659218,1 38.2081937,1 C37.9182495,1 37.6283054,1.0625 37.3705773,1.21875 C37.1128492,1.34375 36.9195531,1.5625 36.758473,1.78125 C36.5973929,2.03125 36.5329609,2.28125 36.5329609,2.59375 C36.5329609,2.875 36.5973929,3.15625 36.758473,3.40625 C36.9195531,3.65625 37.1128492,3.84375 37.3705773,3.96875 C37.6283054,4.125 37.9182495,4.1875 38.2081937,4.1875 C38.4337058,4.1875 38.6592179,4.125 38.88473,4.03125 C39.1102421,3.9375 39.3035382,3.8125 39.4968343,3.625 L39.9478585,4.125 C39.7223464,4.34375 39.4324022,4.53125 39.1102421,4.65625 C38.7880819,4.78125 38.4659218,4.84375 38.1437616,4.84375 C37.6927374,4.84375 37.2739292,4.75 36.9195531,4.53125 C36.5651769,4.34375 36.2752328,4.0625 36.0497207,3.71875 C35.8242086,3.375 35.7275605,2.96875 35.7275605,2.5625 C35.7275605,2.15625 35.8242086,1.75 36.0497207,1.40625 C36.2752328,1.0625 36.5651769,0.78125 36.9195531,0.59375 C37.3061453,0.40625 37.6927374,0.28125 38.1437616,0.28125 C38.5303538,0.3125 38.852514,0.375 39.1746741,0.5 Z"/><path id="Shape" d="M46.4877095,4 C46.3266294,4.28125 46.1011173,4.5 45.7789572,4.65625 C45.489013,4.8125 45.1024209,4.875 44.7158287,4.875 C44.2970205,4.875 43.9426443,4.8125 43.6527002,4.65625 C43.3627561,4.5 43.1050279,4.28125 42.9439479,4 C42.7828678,3.71875 42.6862197,3.375 42.6862197,3 L42.6862197,0.375 L43.4594041,0.375 L43.4594041,3 C43.4594041,3.375 43.5560521,3.6875 43.7815642,3.875 C44.0070764,4.09375 44.2970205,4.1875 44.6836127,4.1875 C45.0702048,4.1875 45.360149,4.09375 45.5856611,3.875 C45.8111732,3.65625 45.9078212,3.375 45.9078212,2.96875 L45.9078212,0.34375 L46.6810056,0.34375 L46.6810056,2.96875 C46.7132216,3.375 46.6487896,3.71875 46.4877095,4 Z"/><path id="Shape" d="M51.932216,3.5 C51.9,3.5 51.803352,3.5 51.7067039,3.5 L50.6113594,3.5 L50.6113594,4.84375 L49.838175,4.84375 L49.838175,0.34375 L51.7389199,0.34375 C52.3188082,0.34375 52.8020484,0.46875 53.1242086,0.75 C53.4463687,1.03125 53.6074488,1.40625 53.6074488,1.875 C53.6074488,2.25 53.5108007,2.53125 53.3497207,2.78125 C53.1886406,3.03125 52.9309125,3.21875 52.6409683,3.34375 L53.6718808,4.84375 L52.7698324,4.84375 L51.932216,3.5 Z M52.5443203,2.59375 C52.7376164,2.4375 52.8342644,2.21875 52.8342644,1.90625 C52.8342644,1.625 52.7376164,1.40625 52.5443203,1.25 C52.3510242,1.09375 52.0610801,1.03125 51.7067039,1.03125 L50.6113594,1.03125 L50.6113594,2.8125 L51.7067039,2.8125 C52.0610801,2.8125 52.3510242,2.75 52.5443203,2.59375 Z"/><polygon id="Shape" points="56.604 4.844 56.604 .344 57.377 .344 57.377 4.844"/><polygon id="Shape" points="62.306 1.031 62.306 4.844 61.533 4.844 61.533 1.031 60.051 1.031 60.051 .344 63.788 .344 63.788 1.031"/><polygon id="Shape" points="66.429 4.844 66.429 .344 67.203 .344 67.203 4.844"/><polygon id="Shape" points="71.197 1.031 71.197 2.25 73.453 2.25 73.453 2.938 71.197 2.938 71.197 4.188 73.807 4.188 73.807 4.875 70.424 4.875 70.424 .375 73.742 .375 73.742 1.063 71.197 1.063"/><path id="Shape" d="M79.1547486,0.4375 C79.4446927,0.53125 79.7024209,0.625 79.8957169,0.78125 L79.5735568,1.4375 C79.3480447,1.28125 79.0903166,1.1875 78.8648045,1.125 C78.6392924,1.0625 78.4137803,1.03125 78.2204842,1.03125 C77.9949721,1.03125 77.801676,1.0625 77.6728119,1.15625 C77.5439479,1.25 77.4795158,1.34375 77.4795158,1.5 C77.4795158,1.625 77.5117318,1.75 77.6083799,1.84375 C77.7050279,1.9375 77.801676,2 77.93054,2.0625 C78.0594041,2.125 78.2527002,2.1875 78.4782123,2.25 C78.8003724,2.34375 79.0581006,2.4375 79.2513966,2.53125 C79.4446927,2.625 79.6057728,2.75 79.7668529,2.9375 C79.8957169,3.125 79.960149,3.34375 79.960149,3.625 C79.960149,3.875 79.8957169,4.125 79.7346369,4.3125 C79.5735568,4.5 79.3802607,4.65625 79.1225326,4.78125 C78.8648045,4.90625 78.5426443,4.9375 78.2204842,4.9375 C77.866108,4.9375 77.5117318,4.875 77.1895717,4.75 C76.8674115,4.625 76.5774674,4.4375 76.3197393,4.21875 L76.6741155,3.5625 C76.8996276,3.78125 77.1573557,3.9375 77.4472998,4.0625 C77.7372439,4.1875 77.9949721,4.21875 78.2527002,4.21875 C78.5426443,4.21875 78.7359404,4.15625 78.8970205,4.0625 C79.0581006,3.96875 79.1225326,3.84375 79.1225326,3.65625 C79.1225326,3.53125 79.0903166,3.40625 78.9936685,3.3125 C78.8970205,3.21875 78.8003724,3.15625 78.6392924,3.09375 C78.5104283,3.03125 78.3171322,2.96875 78.0916201,2.90625 C77.76946,2.8125 77.5117318,2.71875 77.3184358,2.65625 C77.1251397,2.5625 76.9640596,2.4375 76.8351955,2.28125 C76.7063315,2.125 76.6418994,1.90625 76.6418994,1.625 C76.6418994,1.375 76.7063315,1.15625 76.8674115,0.96875 C77.0284916,0.78125 77.2217877,0.625 77.4472998,0.53125 C77.6728119,0.4375 77.9949721,0.375 78.3171322,0.375 C78.6070764,0.3125 78.8970205,0.34375 79.1547486,0.4375 Z"/><polygon id="Shape" points="88.272 1.031 88.272 4.844 87.499 4.844 87.499 1.031 86.017 1.031 86.017 .344 89.754 .344 89.754 1.031"/><path id="Shape" d="M95.4560521,0.625 C95.8426443,0.8125 96.1325885,1.09375 96.3581006,1.4375 C96.5836127,1.78125 96.6802607,2.15625 96.6802607,2.59375 C96.6802607,3.03125 96.5836127,3.40625 96.3581006,3.75 C96.1325885,4.09375 95.8426443,4.375 95.4560521,4.5625 C95.06946,4.75 94.6506518,4.875 94.1996276,4.875 C93.7486034,4.875 93.3297952,4.78125 92.943203,4.5625 C92.5566108,4.375 92.2666667,4.09375 92.0411546,3.75 C91.8156425,3.40625 91.7189944,3 91.7189944,2.59375 C91.7189944,2.15625 91.8156425,1.78125 92.0411546,1.4375 C92.2666667,1.09375 92.5566108,0.8125 92.943203,0.625 C93.3297952,0.4375 93.7486034,0.3125 94.1996276,0.3125 C94.6506518,0.3125 95.06946,0.4375 95.4560521,0.625 Z M93.3942272,1.21875 C93.1364991,1.375 92.943203,1.5625 92.7821229,1.78125 C92.6210428,2.03125 92.5566108,2.28125 92.5566108,2.59375 C92.5566108,2.875 92.6210428,3.15625 92.7821229,3.40625 C92.943203,3.65625 93.1364991,3.84375 93.3942272,4 C93.6519553,4.15625 93.9096834,4.21875 94.2318436,4.21875 C94.5217877,4.21875 94.8117318,4.15625 95.06946,4 C95.3271881,3.84375 95.5204842,3.65625 95.6815642,3.40625 C95.8426443,3.15625 95.9070764,2.875 95.9070764,2.59375 C95.9070764,2.3125 95.8426443,2.03125 95.6815642,1.78125 C95.5204842,1.53125 95.3271881,1.34375 95.06946,1.21875 C94.8117318,1.0625 94.5540037,1 94.2318436,1 C93.9096834,1 93.6519553,1.09375 93.3942272,1.21875 Z"/><polygon id="Shape" points="101.062 2.875 100.256 3.719 100.256 4.875 99.483 4.875 99.483 .375 100.256 .375 100.256 2.719 102.479 .375 103.413 .375 101.609 2.313 103.542 4.906 102.608 4.906"/><polygon id="Shape" points="107.022 1.031 107.022 2.25 109.277 2.25 109.277 2.938 107.022 2.938 107.022 4.188 109.631 4.188 109.631 4.875 106.248 4.875 106.248 .375 109.567 .375 109.567 1.063 107.022 1.063"/><polygon id="Shape" points="115.849 4.844 113.368 1.625 113.368 4.844 112.595 4.844 112.595 .344 113.368 .344 115.849 3.594 115.849 .344 116.622 .344 116.622 4.844"/><path id="Shape" d="M126.737803,0.75 C127.059963,1.03125 127.221043,1.40625 127.221043,1.875 C127.221043,2.375 127.059963,2.78125 126.737803,3.0625 C126.415642,3.34375 125.964618,3.46875 125.38473,3.46875 L124.321601,3.46875 L124.321601,4.8125 L123.548417,4.8125 L123.548417,0.3125 L125.416946,0.3125 C125.964618,0.34375 126.415642,0.46875 126.737803,0.75 Z M124.321601,2.8125 L125.352514,2.8125 C125.70689,2.8125 125.996834,2.75 126.19013,2.59375 C126.383426,2.4375 126.480074,2.21875 126.480074,1.90625 C126.480074,1.625 126.383426,1.40625 126.19013,1.25 C125.996834,1.09375 125.70689,1.03125 125.352514,1.03125 L124.321601,1.03125 L124.321601,2.8125 Z"/><polygon id="Shape" points="132.794 4.156 132.794 4.844 129.992 4.844 129.992 .344 130.765 .344 130.765 4.156"/><path id="Shape" d="M136.209311,3.84375 L135.758287,4.875 L134.952886,4.875 L137.014711,0.375 L137.820112,0.375 L139.849721,4.875 L139.012104,4.875 L138.56108,3.84375 L136.209311,3.84375 Z M137.401304,1.15625 L136.531471,3.15625 L138.271136,3.15625 L137.401304,1.15625 Z"/><polygon id="Shape" points="143.683 1.031 143.683 4.844 142.91 4.844 142.91 1.031 141.428 1.031 141.428 .344 145.165 .344 145.165 1.031"/><polygon id="Shape" points="148.612 1.031 148.612 2.344 150.707 2.344 150.707 3.031 148.612 3.031 148.612 4.875 147.839 4.875 147.839 .375 150.964 .375 150.964 1.063 148.612 1.063"/><path id="Shape" d="M156.956425,0.625 C157.343017,0.8125 157.632961,1.09375 157.858473,1.4375 C158.083985,1.78125 158.180633,2.15625 158.180633,2.59375 C158.180633,3.03125 158.083985,3.40625 157.858473,3.75 C157.632961,4.09375 157.343017,4.375 156.956425,4.5625 C156.569832,4.75 156.151024,4.875 155.7,4.875 C155.248976,4.875 154.830168,4.78125 154.443575,4.5625 C154.056983,4.375 153.767039,4.09375 153.541527,3.75 C153.316015,3.40625 153.219367,3 153.219367,2.59375 C153.219367,2.15625 153.316015,1.78125 153.541527,1.4375 C153.767039,1.09375 154.056983,0.8125 154.443575,0.625 C154.830168,0.4375 155.248976,0.3125 155.7,0.3125 C156.151024,0.3125 156.569832,0.4375 156.956425,0.625 Z M154.862384,1.21875 C154.604655,1.375 154.411359,1.5625 154.250279,1.78125 C154.089199,2.03125 154.024767,2.28125 154.024767,2.59375 C154.024767,2.875 154.089199,3.15625 154.250279,3.40625 C154.411359,3.65625 154.604655,3.84375 154.862384,4 C155.120112,4.15625 155.37784,4.21875 155.7,4.21875 C155.989944,4.21875 156.279888,4.15625 156.537616,4 C156.795345,3.84375 156.988641,3.65625 157.149721,3.40625 C157.310801,3.15625 157.375233,2.875 157.375233,2.59375 C157.375233,2.3125 157.310801,2.03125 157.149721,1.78125 C156.988641,1.53125 156.795345,1.34375 156.537616,1.21875 C156.279888,1.0625 156.02216,1 155.7,1 C155.410056,1 155.120112,1.09375 154.862384,1.21875 Z"/><path id="Shape" d="M163.077467,3.5 C163.045251,3.5 162.948603,3.5 162.851955,3.5 L161.756611,3.5 L161.756611,4.84375 L160.983426,4.84375 L160.983426,0.34375 L162.884171,0.34375 C163.46406,0.34375 163.9473,0.46875 164.26946,0.75 C164.59162,1.03125 164.7527,1.40625 164.7527,1.875 C164.7527,2.25 164.656052,2.53125 164.494972,2.78125 C164.333892,3.03125 164.076164,3.21875 163.78622,3.34375 L164.817132,4.84375 L163.915084,4.84375 L163.077467,3.5 Z M163.689572,2.59375 C163.882868,2.4375 163.979516,2.21875 163.979516,1.90625 C163.979516,1.625 163.882868,1.40625 163.689572,1.25 C163.496276,1.09375 163.206331,1.03125 162.851955,1.03125 L161.756611,1.03125 L161.756611,2.8125 L162.851955,2.8125 C163.238547,2.8125 163.496276,2.75 163.689572,2.59375 Z"/><polygon id="Shape" points="171.969 4.844 171.969 1.469 170.487 4.375 169.972 4.375 168.522 1.469 168.522 4.844 167.781 4.844 167.781 .344 168.715 .344 170.262 3.344 171.776 .344 172.71 .344 172.71 4.844"/></g><polygon id="Shape" fill="#313A62" points="143 9.552 142.711 4.73 141.297 8.749 133.327 15.726 124.201 17.14 121.47 14.504 129.439 3.444 137.666 1 128.796 1.193 115.91 10.549 103.828 9.681 115.942 17.976 121.92 22.188 103.731 9.392 86.828 1 86.828 1 76.802 2.993 45.535 29.037 30.496 33.891 24.294 40.225 13.175 40.354 7.712 50.578 0 52.797 7.295 53.826 14.075 44.662 24.519 46.849 24.358 56.623 19.12 70.738 16.132 83.791 12.918 89 21.08 87.199 20.149 81.862 27.058 67.522 40.458 62.153 45.631 53.569 54.372 47.17 71.693 49.742 89.206 42.058 86.218 54.179 78.441 54.887 76.224 64.886 82.908 60.417 93.898 55.626 102.542 42.122 103.056 35.692 107.716 40.515 121.18 48.939 128.796 45.338 128.347 27.429 126.161 20.516 136.155 18.008"/><g id="Group"><g id="Shape"><polygon fill="#3F4B80" points="121.566 14.253 115.685 9.964 129.439 2.999"/><polygon fill="#313A62" points="86.603 .129 103.731 8.964 105.788 23.217"/><polygon fill="#3F4B80" points="105.788 23.217 103.056 35.342 86.603 .129"/><polygon fill="#4B5897" points="103.056 35.342 76.834 2.128 86.636 .193"/><polygon fill="#5161A4" points="103.056 35.342 74.617 24.185 76.834 2.128"/><polygon fill="#4B5897" points="76.834 2.128 74.617 24.185 45.31 28.312"/><polygon fill="#4B5897" points="103.056 35.342 71.693 43.887 74.617 24.185"/><polygon fill="#3F4B80" points="71.693 43.887 103.056 35.342 88.917 41.953"/><polygon fill="#3F4B80" points="54.372 46.854 71.693 43.887 71.982 49.821"/><polygon fill="#313A62" points="71.982 49.821 71.693 43.887 88.917 41.953"/><polygon fill="#3F4B80" points="45.31 28.312 74.617 24.185 71.693 43.887"/><polygon fill="#4B5897" points="45.31 28.312 71.693 43.887 54.372 46.854"/><polygon fill="#313A62" points="45.31 28.312 54.372 46.854 45.631 53.271"/><polygon fill="#5161A4" points="30.432 33.311 33.934 54.432 24.294 39.889"/><polygon fill="#313A62" points="13.175 40.018 24.294 39.889 24.358 46.693"/><polygon fill="#3F4B80" points="14.075 44.629 13.175 40.018 24.358 46.693"/><polygon fill="#4B5897" points="14.075 44.629 7.712 50.272 13.175 40.018"/><polygon fill="#313A62" points="7.712 50.272 7.262 53.69 0 52.497"/><polygon fill="#5161A4" points="7.712 50.272 14.075 44.629 7.262 53.69"/><polygon fill="#3F4B80" points="24.294 39.889 33.934 54.432 24.358 56.334"/><polygon fill="#3F4B80" points="27.122 67.169 20.149 81.648 19.12 70.491"/><polygon fill="#1F243E" points="19.12 70.491 20.149 81.648 16.132 83.583"/><polygon fill="#3F4B80" points="20.149 81.648 21.209 87.097 12.918 88.807"/><polygon fill="#313A62" points="16.132 83.583 20.149 81.648 12.918 88.807"/><polygon fill="#313A62" points="24.358 56.334 33.934 54.432 19.12 70.491"/><polygon fill="#4B5897" points="33.934 54.432 40.458 61.881 19.12 70.491"/><polygon fill="#4B5897" points="30.432 33.311 45.31 28.312 33.934 54.432"/><polygon fill="#3F4B80" points="33.934 54.432 45.31 28.312 45.631 53.271"/><polygon fill="#313A62" points="40.458 61.881 33.934 54.432 45.631 53.271"/><polygon fill="#4B5897" points="88.917 41.953 102.703 41.856 93.898 55.335"/><polygon fill="#5161A4" points="88.917 41.953 103.056 35.342 102.703 41.856"/><polygon fill="#3F4B80" points="86.218 53.884 88.917 41.953 93.898 55.335"/><polygon fill="#4B5897" points="82.908 60.139 86.218 53.884 93.898 55.335"/><polygon fill="#3F4B80" points="76.224 64.622 78.313 54.367 86.218 53.884"/><polygon fill="#313A62" points="76.224 64.622 86.218 53.884 82.908 60.139"/><polygon fill="#495692" points="115.685 9.964 128.796 .742 129.439 2.999"/><polygon fill="#5D6CAC" points="128.796 .742 139.529 .193 129.439 2.999"/><polygon fill="#4F60A3" points="121.92 21.799 115.942 17.574 136.155 17.607"/><polygon fill="#495692" points="115.942 17.574 133.327 15.317 136.155 17.607"/><polygon fill="#3F4B80" points="133.327 15.317 141.297 8.32 136.155 17.607"/><polygon fill="#4F60A3" points="136.155 17.607 141.297 8.32 143 9.126"/><polygon fill="#313A62" points="141.297 8.32 142.711 4.289 143 9.126"/></g><polygon id="Shape" fill="#313A62" points="105.788 23.217 107.716 40.179 103.056 35.342"/><polygon id="Shape" fill="#3F4B80" points="107.716 40.179 105.788 23.217 121.92 21.799"/><polygon id="Shape" fill="#4B5897" points="121.92 21.799 105.788 23.217 103.731 8.964"/><polygon id="Shape" fill="#313A62" points="121.566 14.253 124.169 16.607 115.942 17.574"/><polygon id="Shape" fill="#3F4B80" points="103.731 8.964 121.566 14.253 115.942 17.574"/><polygon id="Shape" fill="#313A62" points="103.731 8.964 115.685 9.964 121.566 14.253"/><polygon id="Shape" fill="#3F4B80" points="121.18 48.628 121.92 21.799 128.347 27.055"/><polygon id="Shape" fill="#495692" points="121.18 48.628 121.92 21.799 107.716 40.179"/><polygon id="Shape" fill="#313A62" points="128.347 27.055 126.29 20.347 121.92 21.799"/><polygon id="Shape" fill="#313A62" points="129.214 44.919 121.18 48.628 128.347 27.055"/></g></g><rect id="Rectangle-8" width="264" height="120" x="0" y="0" fill="#FFF" style="mix-blend-mode:color"/></g></g></g></svg>