<?xml version="1.0" encoding="UTF-8"?>
<svg width="28px" height="18px" viewBox="0 0 28 18" version="1.1" xmlns="http://www.w3.org/2000/svg" xmlns:xlink="http://www.w3.org/1999/xlink">
    <!-- Generator: Sketch 48.2 (47327) - http://www.bohemiancoding.com/sketch -->
    <title>“</title>
    <desc>Created with Sketch.</desc>
    <defs></defs>
    <g id="102_Storytelling-Toronto---Home-Copy-2" stroke="none" stroke-width="1" fill="none" fill-rule="evenodd" transform="translate(-210.000000, -3668.000000)">
        <path d="M231.649485,3678.26562 L233.958763,3677.98438 C236.652934,3678.35938 238,3679.55468 238,3681.57031 C238,3684.52345 236.532661,3686 233.597938,3686 C231.67353,3686 230.182136,3685.26173 229.123711,3683.78516 C228.065287,3682.30859 227.536082,3680.63282 227.536082,3678.75781 C227.536082,3676.8828 228.46219,3674.82032 230.314433,3672.57031 C232.166676,3670.3203 234.079028,3668.79688 236.051546,3668 L236.773196,3669.54688 C235.47422,3670.20313 234.1031,3671.32812 232.659794,3672.92188 C231.216488,3674.51563 230.494845,3675.92187 230.494845,3677.14062 C230.494845,3677.89063 230.879721,3678.26562 231.649485,3678.26562 Z M214.041237,3678.26562 L216.42268,3677.98438 C219.068742,3678.3125 220.391753,3679.5078 220.391753,3681.57031 C220.391753,3684.52345 218.924413,3686 215.989691,3686 C214.017172,3686 212.501724,3685.20313 211.443299,3683.60938 C210.481095,3682.24999 210,3680.63282 210,3678.75781 C210,3676.8828 210.926108,3674.82032 212.778351,3672.57031 C214.630593,3670.3203 216.542945,3668.79688 218.515464,3668 L219.164948,3669.54688 C217.817863,3670.20313 216.45877,3671.32812 215.087629,3672.92188 C213.716488,3674.51563 213.030928,3675.80468 213.030928,3676.78906 C213.030928,3677.77344 213.367694,3678.26562 214.041237,3678.26562 Z" id="“" fill="#1A1919"></path>
    </g>
</svg>