<?xml version="1.0" encoding="UTF-8"?>
<svg width="28px" height="18px" viewBox="0 0 28 18" version="1.1" xmlns="http://www.w3.org/2000/svg" xmlns:xlink="http://www.w3.org/1999/xlink">
    <!-- Generator: Sketch 48.2 (47327) - http://www.bohemiancoding.com/sketch -->
    <title>“ copy</title>
    <desc>Created with Sketch.</desc>
    <defs></defs>
    <g id="102_Storytelling-Toronto---Home-Copy-2" stroke="none" stroke-width="1" fill="none" fill-rule="evenodd" transform="translate(-595.000000, -3778.000000)">
        <path d="M616.649485,3788.26562 L618.958763,3787.98438 C621.652934,3788.35938 623,3789.55468 623,3791.57031 C623,3794.52345 621.532661,3796 618.597938,3796 C616.67353,3796 615.182136,3795.26173 614.123711,3793.78516 C613.065287,3792.30859 612.536082,3790.63282 612.536082,3788.75781 C612.536082,3786.8828 613.46219,3784.82032 615.314433,3782.57031 C617.166676,3780.3203 619.079028,3778.79688 621.051546,3778 L621.773196,3779.54688 C620.47422,3780.20313 619.1031,3781.32812 617.659794,3782.92188 C616.216488,3784.51563 615.494845,3785.92187 615.494845,3787.14062 C615.494845,3787.89063 615.879721,3788.26562 616.649485,3788.26562 Z M599.041237,3788.26562 L601.42268,3787.98438 C604.068742,3788.3125 605.391753,3789.5078 605.391753,3791.57031 C605.391753,3794.52345 603.924413,3796 600.989691,3796 C599.017172,3796 597.501724,3795.20313 596.443299,3793.60938 C595.481095,3792.24999 595,3790.63282 595,3788.75781 C595,3786.8828 595.926108,3784.82032 597.778351,3782.57031 C599.630593,3780.3203 601.542945,3778.79688 603.515464,3778 L604.164948,3779.54688 C602.817863,3780.20313 601.45877,3781.32812 600.087629,3782.92188 C598.716488,3784.51563 598.030928,3785.80468 598.030928,3786.78906 C598.030928,3787.77344 598.367694,3788.26562 599.041237,3788.26562 Z" id="“-copy" fill="#1A1919" transform="translate(609.000000, 3787.000000) rotate(-180.000000) translate(-609.000000, -3787.000000) "></path>
    </g>
</svg>