<?xml version="1.0" encoding="UTF-8"?>
<svg width="93px" height="93px" viewBox="0 0 93 93" version="1.1" xmlns="http://www.w3.org/2000/svg" xmlns:xlink="http://www.w3.org/1999/xlink">
    <!-- Generator: Sketch 49 (51002) - http://www.bohemiancoding.com/sketch -->
    <title>Group 11</title>
    <desc>Created with Sketch.</desc>
    <defs></defs>
    <g id="Page-1" stroke="none" stroke-width="1" fill="none" fill-rule="evenodd">
        <g id="102_Storytelling-Toronto---Home-Copy-4" transform="translate(-686.000000, -1227.000000)">
            <g id="Group-11" transform="translate(686.000000, 1227.000000)">
                <circle id="Oval-6-Copy" fill="#1A1919" opacity="0.701709692" cx="46.5" cy="46.5" r="46.5"></circle>
                <g id="Group-5" transform="translate(15.984375, 15.984375)">
                    <g id="noun_1332148" fill="#FFFFFF" fill-rule="nonzero">
                        <circle id="Oval" cx="10.4842969" cy="46.8778125" r="2.63742187"></circle>
                        <path d="M12.3951562,50.1328125 L8.5734375,50.1328125 C6.9837569,50.2451212 5.7656769,51.5914201 5.8125,53.184375 L5.8125,56.671875 L15.2578125,56.671875 L15.2578125,53.184375 C15.2573018,51.5715671 14.004644,50.2362467 12.3951562,50.1328125 Z" id="Shape"></path>
                        <circle id="Oval" cx="10.4842969" cy="7.6434375" r="2.63742187"></circle>
                        <path d="M12.3951562,10.8984375 L8.5734375,10.8984375 C6.9837569,11.0107462 5.7656769,12.3570451 5.8125,13.95 L5.8125,17.4375 L15.2578125,17.4375 L15.2578125,13.95 C15.2573018,12.3371921 14.004644,11.0018717 12.3951562,10.8984375 Z" id="Shape"></path>
                        <path d="M60.5880469,54.3904688 C59.8115724,52.2618979 57.6024468,51.0140654 55.3785937,51.4478906 L49.8349219,36.2482031 C54.5589481,34.7910787 58.0792158,30.825677 58.9662246,25.9622574 C59.8532333,21.0988378 57.9595055,16.1460112 54.0540409,13.1150078 C50.1485763,10.0840045 44.8807126,9.4787707 40.3896094,11.5450781 L39.3869531,8.776875 C41.5396164,7.59886524 42.3908896,4.94011686 41.32275,2.73087631 C40.2546103,0.521635764 37.6420911,-0.462413149 35.3818764,0.493147281 C33.1216618,1.44870771 32.0073329,4.00837181 32.8478906,6.31382813 C33.6058574,8.45558577 35.8220427,9.71534474 38.0500781,9.2709375 L39.118125,12.2207813 C36.5027009,13.7623132 34.4928284,16.1516004 33.421875,18.9923438 L19.6171875,14.2478906 C20.789547,9.21132783 17.7703229,4.14906517 12.7817152,2.78701347 C7.79310754,1.42496177 2.62025225,4.25052107 1.07045824,9.184032 C-0.479335766,14.1175429 2.14851372,19.3935854 7.0198651,21.128903 C11.8912165,22.8642207 17.262893,20.437843 19.18125,15.635625 L32.9859375,20.3800781 C32.7147845,21.4365523 32.5756764,22.522572 32.5717969,23.6132813 C32.5717969,23.9257031 32.5717969,24.2308594 32.6153906,24.5432813 L20.9903906,28.7936719 C19.8095343,26.6414171 17.1482904,25.7933938 14.9399221,26.8656492 C12.7315538,27.9379046 11.7521079,30.5536356 12.7131038,32.8126418 C13.6740996,35.071648 16.237832,36.1800879 18.541875,35.3327344 C20.6683466,34.5537854 21.9150753,32.3466138 21.4844531,30.1232813 L32.8188281,25.9891406 C33.1619376,27.8155784 33.8874187,29.5488096 34.9476562,31.0750781 L18.7017187,46.2820313 C18.5141511,45.9330074 18.305483,45.5957414 18.076875,45.2721094 C15.5475488,41.7275436 10.9538432,40.3221339 6.87425056,41.8447507 C2.79465794,43.3673675 0.245079357,47.4388484 0.656618464,51.7738309 C1.06815757,56.1088134 4.33833281,59.6277992 8.6315625,60.3555469 C9.1644584,60.4462268 9.70397646,60.4924018 10.2445312,60.4935938 C13.3641325,60.4923877 16.2897541,58.9796191 18.0940992,56.4347708 C19.8984442,53.8899226 20.357797,50.6285232 19.3265625,47.6842969 L35.8195312,32.2957031 C36.8478106,33.4827631 38.0776306,34.4789173 39.4523437,35.2382813 L37.1927344,39.5322656 C35.4563208,38.940167 33.534092,39.4331255 32.2969318,40.7878017 C31.0597716,42.1424779 30.7427891,44.10143 31.4895961,45.7771366 C32.2364031,47.4528431 33.9050769,48.5268538 35.7396094,48.5125781 C37.725474,48.5125781 39.4885373,47.241834 40.1165228,45.3578774 C40.7445084,43.4739208 40.0965042,41.3994876 38.5078125,40.2079688 L40.7964844,35.8485938 C43.2202079,36.846457 45.8863164,37.0994085 48.4544531,36.5751563 L54.0199219,51.9492188 C51.8680943,53.1329366 51.0233453,55.7966698 52.099724,58.0041477 C53.1761027,60.2116257 55.7950326,61.1864496 58.0528106,60.2200188 C60.3105886,59.2535881 61.4131248,56.6858091 60.5589844,54.3832031 L60.5880469,54.3904688 Z M34.1992969,5.8125 C33.7641799,4.61044532 34.0960453,3.26464417 35.0401325,2.40269193 C35.9842197,1.5407397 37.3545883,1.33240004 38.5121862,1.87482921 C39.6697841,2.41725838 40.3866195,3.60362361 40.3284063,4.88068019 C40.2701931,6.15773677 39.4483966,7.27396521 38.24625,7.70882813 C37.458434,8.00003461 36.5867712,7.96334326 35.8262145,7.60696034 C35.0656578,7.25057742 34.4796649,6.60423794 34.1992969,5.8125 Z M10.2227344,20.2565625 C5.712247,20.2485367 2.06077661,16.588393 2.06345188,12.0778992 C2.06612714,7.56740553 5.72193678,3.91159589 10.2324305,3.90892063 C14.7429242,3.90624536 18.403068,7.55771575 18.4110938,12.0682031 C18.4070879,16.5808234 14.7498859,20.2380254 10.2372656,20.2420313 L10.2227344,20.2565625 Z M18.0114844,34.003125 C16.3715257,34.599306 14.5587114,33.7536264 13.9617881,32.1139378 C13.3648647,30.4742492 14.2097235,28.6610523 15.8491417,28.0633866 C17.4885598,27.465721 19.3021391,28.3097588 19.9005469,29.9489063 C20.1882595,30.7370033 20.1508201,31.6071572 19.7964783,32.3676291 C19.4421366,33.1281009 18.7999715,33.716483 18.0114844,34.003125 Z M18.2948437,52.2107813 C17.5779112,56.4873251 13.6462437,59.4597929 9.33622793,58.9837844 C5.02621215,58.507776 1.83796285,54.7489677 2.0715493,50.4190419 C2.30513576,46.0891161 5.87925745,42.6951174 10.2154687,42.6855469 C10.6732142,42.6864197 11.1300966,42.7253034 11.5814062,42.8017969 C13.7209694,43.1533168 15.6309068,44.3463736 16.8853125,46.1149219 C17.2427238,46.6173788 17.542498,47.1584347 17.7789844,47.7278906 C18.3712607,49.1433759 18.5501288,50.6977646 18.2948437,52.2107813 Z M38.5078125,45.3665625 C37.9129995,46.4987178 36.6945181,47.1608248 35.4209762,47.0439094 C34.1474343,46.9269941 33.0698709,46.0541025 32.6911341,44.8325721 C32.3123972,43.6110417 32.7071431,42.281659 33.6911623,41.4647843 C34.6751815,40.6479096 36.0545055,40.5045642 37.1854687,41.1016406 C37.9300602,41.4881398 38.4889399,42.1566307 38.7373824,42.9579261 C38.9858249,43.7592215 38.9031515,44.6266267 38.5078125,45.3665625 Z M34.0103906,23.6132812 C34.0103906,17.0926537 39.2964037,11.8066406 45.8170312,11.8066406 C52.3376588,11.8066406 57.6236719,17.0926537 57.6236719,23.6132812 C57.6236719,30.1339088 52.3376588,35.4199219 45.8170312,35.4199219 C39.299723,35.4119153 34.0183972,30.1305895 34.0103906,23.6132812 Z M59.1203906,57.3039844 C58.4848695,58.6710321 56.972305,59.3989269 55.507461,59.0426427 C54.0426169,58.6863584 53.0333216,57.3450883 53.0966461,55.8388691 C53.1599707,54.3326498 54.2782848,53.0808288 55.7678647,52.8487545 C57.2574445,52.6166803 58.7035751,53.4689647 59.2221094,54.8845313 C59.5131997,55.6721545 59.4765635,56.5435734 59.1203906,57.3039844 Z" id="Shape"></path>
                    </g>
                    <g id="Page-1" transform="translate(39.960938, 17.437500)">
                        <polygon id="Fill-1" fill="#FEFEFE" points="0 0 0 11.625 1.5240512 11.625 1.5240512 3.71804369 6.16297833 8.43073368 7.26007872 7.31630852 4.97112949 4.97617083 4.97212859 4.97568093 0.0565326833 0"></polygon>
                        <polygon id="Fill-2" fill="#C62127" points="12.2948597 0 6.97721851 5.37481212 8.09001149 6.50608077 10.825506 3.73102283 10.825506 11.625 12.3515625 11.625 12.3515625 0"></polygon>
                    </g>
                </g>
            </g>
        </g>
    </g>
</svg>