<svg xmlns="http://www.w3.org/2000/svg" xmlns:xlink="http://www.w3.org/1999/xlink" width="166" height="23" version="1.1" viewBox="0 0 166 23"><title>Page 1</title><desc>Created with Sketch.</desc><defs><polygon id="path-1" points=".066 .093 22.334 .093 22.334 23 .066 23"/><polygon id="path-3" points="0 .298 14.916 .298 14.916 22.704 0 22.704"/></defs><g id="102_Storytelling-Toronto---Home-Copy-2" fill="none" fill-rule="evenodd" stroke="none" stroke-width="1" transform="translate(-209.000000, -44.000000)"><g id="Page-1" transform="translate(209.000000, 44.000000)"><path id="Fill-1" fill="#231F20" d="M166,23 L162.253315,23 L158.359386,16.6125004 C157.246336,14.693074 156.344731,13.6454997 155.655269,13.4718051 L153.211445,13.4718051 L153.211445,23 L150,23 L150,0 L155.373343,0 C157.782275,0 159.408234,0.419705563 160.634334,1.11718727 C162.760642,2.26951897 163.661549,4.25788252 163.661549,6.35167935 C163.661549,9.52819488 161.859037,11.5179101 158.901605,12.391114 L158.901605,12.4593753 C159.619679,12.8446123 160.521284,14.0996738 161.781577,16.1590021 L166,23 Z M155.331472,10.92451 C156.598744,10.92451 157.535241,10.6812024 158.394976,10.191208 C159.585485,9.56401516 160.345429,8.34139461 160.345429,6.66730334 C160.345429,5.34060122 159.838102,4.22341395 158.831821,3.49078781 C158.105373,2.96700068 157.063503,2.54797097 155.373343,2.54797097 L153.211445,2.54797097 L153.211445,10.92451 L155.331472,10.92451 Z"/><path id="Fill-3" fill="#231F20" d="M41.5346665,0.0657782233 L41.5346665,0 L41.5103635,0 L40.4889797,0 L40.4646767,0 L40.4646767,0.0657782233 L32,23 L35.1350898,23 L37.2553642,16.9802754 L40.4646767,16.9802754 L41.5346665,16.9802754 L44.7446358,16.9802754 L46.8649102,23 L50,23 L41.5346665,0.0657782233 Z M38.1644286,14.4406935 L40.2584294,8.49081582 C40.5881623,7.53465814 40.8200263,6.78939765 41,6.17840611 C41.1793169,6.78939765 41.4111808,7.53465814 41.7402569,8.49081582 L43.8355714,14.4406935 L38.1644286,14.4406935 Z"/><path id="Fill-5" fill="#231F20" d="M81.5349754,0.0657782233 L81.5349754,0 L81.5106732,0 L80.48867,0 L80.4650246,0 L80.4650246,0.0657782233 L72,23 L75.1356322,23 L77.2551724,16.9802754 L80.4650246,16.9802754 L81.5349754,16.9802754 L84.7448276,16.9802754 L86.8643678,23 L90,23 L81.5349754,0.0657782233 Z M78.1642036,14.4406935 L80.2587849,8.49081582 C80.5885057,7.53465814 80.8203612,6.78939765 81.0003284,6.17840611 C81.1796388,6.78939765 81.4114943,7.53465814 81.7405583,8.49081582 L83.8351396,14.4406935 L78.1642036,14.4406935 Z"/><polygon id="Fill-7" fill="#231F20" points="52 0 52 2.547 58.476 2.547 58.476 23 61.515 23 61.515 2.547 67.554 2.547 69 0"/><path id="Fill-9" fill="#231F20" d="M98,0 L103.91828,0 C111.961496,0 116,4.74720108 116,11.3780083 C116,18.0791043 111.788559,23 103.716852,23 L98,23 L98,0 Z M103.751307,20.452029 C110.423618,20.452029 112.783774,16.2286151 112.783774,11.3077194 C112.783774,6.21312921 109.876316,2.54729511 103.683722,2.54729511 L101.049915,2.54729511 L101.049915,20.452029 L103.751307,20.452029 Z"/><g id="Group-13" transform="translate(121.000000, 0.000000)"><mask id="mask-2" fill="#fff"><use xlink:href="#path-1"/></mask><path id="Fill-11" fill="#231F20" d="M0.0658205882,11.5636114 C0.0658205882,4.77664 4.76593824,0.0931828571 11.2167618,0.0931828571 C17.7338794,0.0931828571 22.3338794,4.87784 22.3338794,11.5636114 C22.3338794,18.5201257 17.5329676,22.9998686 11.2167618,22.9998686 C4.79976176,22.9998686 0.0658205882,18.4852971 0.0658205882,11.5636114 M19.1084676,11.5636114 C19.1084676,6.43921143 16.2260265,2.67246857 11.2167618,2.67246857 C6.45035,2.67246857 3.29190882,6.20198286 3.29190882,11.5636114 C3.29190882,16.9587543 6.45035,20.4199257 11.2167618,20.4199257 C15.98385,20.4199257 19.1084676,16.9587543 19.1084676,11.5636114" mask="url(#mask-2)"/></g><g id="Group-16"><mask id="mask-4" fill="#fff"><use xlink:href="#path-3"/></mask><polygon id="Fill-14" fill="#231F20" points="0 .298 0 22.704 3.132 22.704 3.132 7.464 12.662 16.548 14.916 14.399 10.213 9.889 10.215 9.888 .116 .298" mask="url(#mask-4)"/></g><polygon id="Fill-17" fill="#C62127" points="24.884 0 14 10.634 16.278 12.872 21.876 7.382 21.876 23 25 23 25 0"/></g></g></svg>