<?xml version="1.0" encoding="UTF-8"?>
<svg width="93px" height="93px" viewBox="0 0 93 93" version="1.1" xmlns="http://www.w3.org/2000/svg" xmlns:xlink="http://www.w3.org/1999/xlink">
    <!-- Generator: Sketch 49 (51002) - http://www.bohemiancoding.com/sketch -->
    <title>Group 12</title>
    <desc>Created with Sketch.</desc>
    <defs></defs>
    <g id="Page-1" stroke="none" stroke-width="1" fill="none" fill-rule="evenodd">
        <g id="102_Storytelling-Toronto---Home-Copy-4" transform="translate(-673.000000, -1359.000000)">
            <g id="Group-12" transform="translate(673.000000, 1359.000000)">
                <circle id="Oval-6-Copy" fill="#F6F1EC" opacity="0.701709692" cx="46.5" cy="46.5" r="46.5"></circle>
                <g id="noun_435586" transform="translate(13.651376, 26.449541)" fill="#000000" fill-rule="nonzero">
                    <path d="M64.8511099,18.2189327 C64.8256025,18.2131085 62.2748701,17.6168632 60.2350129,16.7053869 C57.7673615,15.6038983 54.6489089,12.7944835 52.3714693,10.7436617 C51.179184,9.6691097 50.2368706,8.82024274 49.5547319,8.34776019 C46.749655,6.40614082 44.5050104,5.82663987 42.702007,5.36143748 C41.8901453,5.1517688 41.1890583,4.97049275 40.5994747,4.70039872 C39.0427991,3.9876708 37.5961695,3.17010854 36.3200745,2.44864442 C34.278031,1.29473865 32.5151105,0.297356371 30.8979461,0.0381825816 C29.535855,-0.17949428 28.2852673,0.546337932 27.7058867,1.88879992 C27.3808505,2.64156873 27.2977695,3.57488558 27.5193188,4.47471368 C26.614902,4.40045602 25.6390646,4.34803885 24.6384487,4.29562168 C23.0169117,4.21117179 21.3414449,4.12308182 19.9327118,3.93306958 C16.618946,3.48533958 12.0145095,1.91282445 8.98496818,0.192522029 C8.4595173,-0.105236622 7.79268297,0.0782234759 7.49461166,0.602395184 C7.19654036,1.12656689 7.38019309,1.79342979 7.90491519,2.09118844 C11.1997327,3.96219023 16.0257185,5.60969103 19.6404707,6.09673391 C21.1373863,6.29912243 22.859495,6.38866843 24.5240301,6.47603038 C26.7701322,6.593241 29.0927563,6.71481971 30.2026893,7.10940453 C31.5837287,7.59935947 33.0667974,8.60766199 34.2794885,9.55845123 C32.8262998,9.28762918 31.4321423,8.90178056 30.5430299,8.32519168 C30.0372561,7.99612833 29.3594901,8.14027555 29.03081,8.64551884 C28.7021299,9.15149014 28.8456997,9.82781724 29.3514735,10.1561526 C31.559679,11.5896166 35.4950947,11.9994898 38.0997569,12.2703118 C38.9312957,12.3569457 39.8728803,12.4552279 40.1162931,12.5374938 C41.3464749,12.9531911 41.9171102,13.3193832 42.5773855,13.7438167 C42.9825876,14.0037185 43.4424482,14.2992931 44.0655557,14.6101561 C44.5035529,14.8285609 44.9728876,15.0127491 45.4276468,15.189657 C46.5521554,15.6293788 47.6147177,16.0450761 47.9047724,16.845166 C48.2028437,17.6685524 47.9871246,18.1199225 47.7983704,18.3878324 C47.2270063,19.2024826 45.6725171,19.7717914 44.0196425,19.7717914 C42.2166391,19.7717914 40.3699088,18.903268 39.1477436,18.3288631 C38.6237502,18.0827936 38.2462418,17.9044296 37.9219344,17.8126996 C36.9023702,17.5214931 31.4773267,17.47126 30.1392854,18.055857 C29.8689078,18.1737957 29.5402277,18.3652639 29.1233651,18.6069653 C27.6679901,19.4529202 25.232405,20.8689119 22.4994774,20.8689119 C18.8278802,20.8689119 14.3320321,18.7336402 12.4678111,17.605215 C11.9511056,17.292168 11.2791698,17.4574277 10.9665229,17.9728632 C10.6531472,18.4882987 10.8185804,19.1602577 11.3345571,19.4725767 C12.4809292,20.1671042 14.345879,21.1098852 16.4535127,21.8539179 C14.5747161,22.5404372 12.7425614,23.3441671 11.4599074,24.3721261 C9.13655457,23.4526416 6.79206707,21.5532471 4.47964593,18.6921432 C3.3143256,17.249943 1.57472608,16.7403316 1.38014164,16.6871865 C0.798574644,16.5270229 0.202432036,16.8677345 0.0406427222,17.4465074 C-0.121875373,18.0252803 0.217736431,18.6266218 0.796388302,18.7918815 C0.808777574,18.7947935 2.04406085,19.1551616 2.77867179,20.0637259 C5.12097294,22.9626866 7.54489753,24.9909399 10.0008885,26.1259173 C9.83326891,26.4928375 9.72759571,26.8808701 9.70281717,27.2951114 C9.6146347,28.8122973 10.2778251,29.6757246 10.8491892,30.1321908 C11.5619367,30.7014995 12.4962336,30.9286406 13.3678553,30.9286406 C13.8284447,30.9286406 14.2715433,30.8653031 14.654882,30.7561007 C14.8465513,30.7022275 15.5425369,30.4597981 16.6517411,30.0652133 C16.6225899,30.6432582 16.721704,31.2314953 16.9716758,31.7855157 C17.5838516,33.1388979 18.9036734,33.9266115 20.4989744,33.9266115 C20.6993891,33.9266115 20.9041764,33.9135072 21.1118789,33.8887547 C21.334157,33.8618181 21.5906879,33.8181371 21.8712684,33.7620798 C21.9069787,34.1683129 22.0097367,34.5665378 22.2072363,34.9407382 C22.7924472,36.0480509 23.9789022,36.7775232 25.3978382,36.9253105 C25.5122568,37.5455804 25.7687876,38.2117152 26.3350502,38.7744718 C27.2445685,39.678668 28.7400265,40.1009174 31.0371432,40.1009174 L31.1202242,40.1009174 C33.1302014,40.0936373 36.2129437,40.03758 40.8232104,39.9240095 C44.3825753,39.8366475 46.7154023,39.4486149 48.9717073,39.0729585 C51.0115645,38.7337029 52.9377319,38.4133757 55.7654009,38.2852449 C59.0951999,38.1447377 62.6101092,39.4020218 62.6450907,39.4151261 C63.2120821,39.6211547 63.8395623,39.3292202 64.046536,38.7628235 C64.2527809,38.1964269 63.9619974,37.5696049 63.3942773,37.3628483 C63.2339455,37.304607 59.4333542,35.9337524 55.6662868,36.1041082 C52.7067084,36.2380631 50.6253107,36.5838709 48.6109609,36.9187584 C46.3291485,37.2980548 44.174144,37.6569668 40.767823,37.7399607 C36.1728608,37.8535312 33.104694,37.9095885 31.1100213,37.9168686 C29.0111329,37.9103165 28.1978136,37.5463084 27.8764213,37.2267092 C27.7962555,37.1473555 27.7109881,37.0345129 27.641754,36.858333 C30.1983166,36.6108075 34.1621548,35.8784231 36.8914385,34.5345051 C37.4329226,34.2673231 37.6559295,33.6121085 37.3891957,33.0719204 C37.1217332,32.5302763 36.4651018,32.3104154 35.9250753,32.5746853 C32.5843446,34.2207301 26.9654455,34.8621124 25.7104851,34.7667423 C24.9904498,34.7150531 24.3884769,34.3903579 24.1399627,33.9207874 C24.0248154,33.7023825 24.0065959,33.4679613 24.0707286,33.2211638 C28.2357102,32.0599778 34.3290456,29.8235119 35.4746889,29.3641336 C36.0351212,29.1391766 36.3069564,28.5028904 36.082492,27.9437739 C35.8565699,27.3824733 35.2196156,27.1131073 34.6606408,27.3366083 C32.8109954,28.0784569 23.5984787,31.3865628 20.8473315,31.7199942 C19.9268815,31.8328368 19.2571321,31.5350781 18.9641622,30.8856876 C18.7396978,30.3891805 18.7659339,29.6728125 19.2797243,29.1217042 C20.7919442,28.577148 22.6233701,27.9153813 24.7156995,27.1589724 C28.1147326,25.9300809 31.625998,24.6611486 32.0690967,24.5191854 C32.5449905,24.4012468 32.8984491,23.9717172 32.8984491,23.4591937 C32.8984491,22.8563963 32.4087085,22.3671693 31.8052781,22.3671693 C31.5465609,22.3671693 31.5465609,22.3671693 23.9723432,25.1059665 C19.7614483,26.6282485 14.5200576,28.5218188 14.0558243,28.6543178 C13.5055948,28.8115693 12.644176,28.7700723 12.215653,28.4264487 C12.0567788,28.2990458 11.8490763,28.0566164 11.8862441,27.4210582 C11.9911885,25.6119378 16.8477831,23.9950137 19.7497878,23.0289361 L20.2657645,22.8571243 C21.0193238,22.978703 21.7699679,23.0522326 22.4994774,23.0522326 C25.8227173,23.0522326 28.6853679,21.3872594 30.2230952,20.4932555 C30.5510465,20.3032432 30.8607783,20.1234232 31.0138222,20.0557177 C31.7943464,19.7390306 36.4753047,19.6837014 37.3214191,19.9108425 C37.4751919,19.9545234 37.8519715,20.1321594 38.2163618,20.3032432 C39.5303534,20.920601 41.7276272,21.9543841 44.0196425,21.9543841 C45.9261328,21.9543841 48.3901403,21.3464905 49.5882558,19.6407484 C50.0867418,18.9316606 50.554619,17.742082 49.9599339,16.0996773 C49.3331825,14.3706387 47.6088874,13.6957676 46.2234753,13.1541235 C45.795681,12.9874078 45.3919365,12.8287003 45.0428506,12.6539764 C44.5239587,12.3955306 44.1522806,12.1567413 43.758739,11.9041196 C43.0423476,11.4440133 42.3011776,10.9678907 40.8159226,10.4662875 C40.3633498,10.3134041 39.6506022,10.2340503 38.3256789,10.0957272 C38.2899687,10.0920871 38.2506145,10.0877191 38.2149043,10.084079 C37.5888817,9.47036126 34.1410202,6.18700792 30.9343851,5.04839049 C30.6938875,4.96321259 30.4162221,4.89186699 30.123981,4.82634553 C29.5263808,4.24611657 29.452774,3.3521126 29.7122199,2.75077117 C29.8987878,2.32051356 30.1815547,2.13341338 30.5510465,2.19092667 C31.7804995,2.38821907 33.3845458,3.29532733 35.2422078,4.3458548 C36.5569282,5.0891594 38.0472847,5.93147422 39.6884988,6.68205898 C40.4537186,7.03296282 41.2801559,7.24627158 42.1546927,7.47195662 C43.8753439,7.91604654 45.8248323,8.4198338 48.3092457,10.1394082 C48.8769658,10.532537 49.8178217,11.3799479 50.9073488,12.3613138 C53.292648,14.5104178 56.5597719,17.4530596 59.3422566,18.6957833 C61.5788845,19.6946216 64.2454931,20.3170755 64.3577253,20.3432841 C64.4400775,20.3622125 64.5238873,20.3716768 64.604782,20.3716768 C65.1025392,20.3716768 65.5521969,20.0302371 65.6688018,19.5257219 C65.8050838,18.9425808 65.4385071,18.3557997 64.8511099,18.2189327 Z" id="Shape"></path>
                </g>
            </g>
        </g>
    </g>
</svg>