<svg xmlns="http://www.w3.org/2000/svg" xmlns:xlink="http://www.w3.org/1999/xlink" width="93" height="93" version="1.1" viewBox="0 0 93 93"><title>Group 7</title><desc>Created with Sketch.</desc><g id="Page-1" fill="none" fill-rule="evenodd" stroke="none" stroke-width="1"><g id="102_Storytelling-Toronto---Home-Copy-4" transform="translate(-641.000000, -1084.000000)"><g id="Group-7" transform="translate(641.000000, 1084.000000)"><circle id="Oval-6" cx="46.5" cy="46.5" r="46.5" fill="#C51718" opacity=".56"/><g id="noun_894236" fill="#FFF" fill-rule="nonzero" transform="translate(19.617188, 19.617188)"><path id="Shape" d="M7.98165761,26.15625 L4.36990489,26.15625 C3.92764946,26.15625 3.6328125,26.446875 3.6328125,26.8828125 L3.6328125,29.7890625 C3.6328125,30.225 3.92764946,30.515625 4.36990489,30.515625 L7.98165761,30.515625 C8.42391304,30.515625 8.71875,30.225 8.71875,29.7890625 L8.71875,26.8828125 C8.71875,26.446875 8.3502038,26.15625 7.98165761,26.15625 Z M7.24456522,29.0625 L5.10699728,29.0625 L5.10699728,27.609375 L7.24456522,27.609375 L7.24456522,29.0625 Z"/><path id="Shape" d="M15.9738451,26.15625 L12.3620924,26.15625 C11.919837,26.15625 11.625,26.446875 11.625,26.8828125 L11.625,29.7890625 C11.625,30.225 11.919837,30.515625 12.3620924,30.515625 L15.9738451,30.515625 C16.4161005,30.515625 16.7109375,30.225 16.7109375,29.7890625 L16.7109375,26.8828125 C16.7109375,26.446875 16.3423913,26.15625 15.9738451,26.15625 Z M15.2367527,29.0625 L13.0991848,29.0625 L13.0991848,27.609375 L15.2367527,27.609375 L15.2367527,29.0625 Z"/><path id="Shape" d="M7.98165761,31.96875 L4.36990489,31.96875 C3.92764946,31.96875 3.6328125,32.259375 3.6328125,32.6953125 L3.6328125,35.6015625 C3.6328125,36.0375 3.92764946,36.328125 4.36990489,36.328125 L7.98165761,36.328125 C8.42391304,36.328125 8.71875,36.0375 8.71875,35.6015625 L8.71875,32.6953125 C8.71875,32.259375 8.3502038,31.96875 7.98165761,31.96875 Z M7.24456522,34.875 L5.10699728,34.875 L5.10699728,33.421875 L7.24456522,33.421875 L7.24456522,34.875 Z"/><path id="Shape" d="M15.9738451,31.96875 L12.3620924,31.96875 C11.919837,31.96875 11.625,32.259375 11.625,32.6953125 L11.625,35.6015625 C11.625,36.0375 11.919837,36.328125 12.3620924,36.328125 L15.9738451,36.328125 C16.4161005,36.328125 16.7109375,36.0375 16.7109375,35.6015625 L16.7109375,32.6953125 C16.7109375,32.259375 16.3423913,31.96875 15.9738451,31.96875 Z M15.2367527,34.875 L13.0991848,34.875 L13.0991848,33.421875 L15.2367527,33.421875 L15.2367527,34.875 Z"/><path id="Shape" d="M7.98165761,38.5078125 L4.36990489,38.5078125 C3.92764946,38.5078125 3.6328125,38.7984375 3.6328125,39.234375 L3.6328125,42.140625 C3.6328125,42.5765625 3.92764946,42.8671875 4.36990489,42.8671875 L7.98165761,42.8671875 C8.42391304,42.8671875 8.71875,42.5765625 8.71875,42.140625 L8.71875,39.234375 C8.71875,38.7984375 8.3502038,38.5078125 7.98165761,38.5078125 Z M7.24456522,41.4140625 L5.10699728,41.4140625 L5.10699728,39.9609375 L7.24456522,39.9609375 L7.24456522,41.4140625 Z"/><path id="Shape" d="M15.9738451,38.5078125 L12.3620924,38.5078125 C11.919837,38.5078125 11.625,38.7984375 11.625,39.234375 L11.625,42.140625 C11.625,42.5765625 11.919837,42.8671875 12.3620924,42.8671875 L15.9738451,42.8671875 C16.4161005,42.8671875 16.7109375,42.5765625 16.7109375,42.140625 L16.7109375,39.234375 C16.7109375,38.7984375 16.3423913,38.5078125 15.9738451,38.5078125 Z M15.2367527,41.4140625 L13.0991848,41.4140625 L13.0991848,39.9609375 L15.2367527,39.9609375 L15.2367527,41.4140625 Z"/><path id="Shape" d="M7.98165761,19.6171875 L4.36990489,19.6171875 C3.92764946,19.6171875 3.6328125,19.9078125 3.6328125,20.34375 L3.6328125,23.25 C3.6328125,23.6859375 3.92764946,23.9765625 4.36990489,23.9765625 L7.98165761,23.9765625 C8.42391304,23.9765625 8.71875,23.6859375 8.71875,23.25 L8.71875,20.34375 C8.71875,19.9804688 8.3502038,19.6171875 7.98165761,19.6171875 Z M7.24456522,22.5960938 L5.10699728,22.5960938 L5.10699728,21.1429688 L7.24456522,21.1429688 L7.24456522,22.5960938 Z"/><path id="Shape" d="M15.9738451,19.6171875 L12.3620924,19.6171875 C11.919837,19.6171875 11.625,19.9078125 11.625,20.34375 L11.625,23.25 C11.625,23.6859375 11.919837,23.9765625 12.3620924,23.9765625 L15.9738451,23.9765625 C16.4161005,23.9765625 16.7109375,23.6859375 16.7109375,23.25 L16.7109375,20.34375 C16.7109375,19.9804688 16.3423913,19.6171875 15.9738451,19.6171875 Z M15.2367527,22.5960938 L13.0991848,22.5960938 L13.0991848,21.1429688 L15.2367527,21.1429688 L15.2367527,22.5960938 Z"/><path id="Shape" d="M38.5183424,30.515625 L42.1300951,30.515625 C42.5723505,30.515625 42.8671875,30.225 42.8671875,29.7890625 L42.8671875,26.8828125 C42.8671875,26.446875 42.5723505,26.15625 42.1300951,26.15625 L38.5183424,26.15625 C38.076087,26.15625 37.78125,26.446875 37.78125,26.8828125 L37.78125,29.7890625 C37.78125,30.225 38.076087,30.515625 38.5183424,30.515625 Z M39.2554348,27.609375 L41.3930027,27.609375 L41.3930027,29.0625 L39.2554348,29.0625 L39.2554348,27.609375 Z"/><path id="Shape" d="M45.7839674,30.515625 L49.3957201,30.515625 C49.8379755,30.515625 50.1328125,30.225 50.1328125,29.7890625 L50.1328125,26.8828125 C50.1328125,26.446875 49.8379755,26.15625 49.3957201,26.15625 L45.7839674,26.15625 C45.341712,26.15625 45.046875,26.446875 45.046875,26.8828125 L45.046875,29.7890625 C45.046875,30.225 45.4154212,30.515625 45.7839674,30.515625 Z M46.5210598,27.609375 L48.6586277,27.609375 L48.6586277,29.0625 L46.5210598,29.0625 L46.5210598,27.609375 Z"/><path id="Shape" d="M38.5183424,36.328125 L42.1300951,36.328125 C42.5723505,36.328125 42.8671875,36.0375 42.8671875,35.6015625 L42.8671875,32.6953125 C42.8671875,32.259375 42.5723505,31.96875 42.1300951,31.96875 L38.5183424,31.96875 C38.076087,31.96875 37.78125,32.259375 37.78125,32.6953125 L37.78125,35.6015625 C37.78125,36.0375 38.076087,36.328125 38.5183424,36.328125 Z M39.2554348,33.421875 L41.3930027,33.421875 L41.3930027,34.875 L39.2554348,34.875 L39.2554348,33.421875 Z"/><path id="Shape" d="M45.7839674,36.328125 L49.3957201,36.328125 C49.8379755,36.328125 50.1328125,36.0375 50.1328125,35.6015625 L50.1328125,32.6953125 C50.1328125,32.259375 49.8379755,31.96875 49.3957201,31.96875 L45.7839674,31.96875 C45.341712,31.96875 45.046875,32.259375 45.046875,32.6953125 L45.046875,35.6015625 C45.046875,36.0375 45.4154212,36.328125 45.7839674,36.328125 Z M46.5210598,33.421875 L48.6586277,33.421875 L48.6586277,34.875 L46.5210598,34.875 L46.5210598,33.421875 Z"/><path id="Shape" d="M38.5183424,42.8671875 L42.1300951,42.8671875 C42.5723505,42.8671875 42.8671875,42.5765625 42.8671875,42.140625 L42.8671875,39.234375 C42.8671875,38.7984375 42.5723505,38.5078125 42.1300951,38.5078125 L38.5183424,38.5078125 C38.076087,38.5078125 37.78125,38.7984375 37.78125,39.234375 L37.78125,42.140625 C37.78125,42.5765625 38.076087,42.8671875 38.5183424,42.8671875 Z M39.2554348,39.9609375 L41.3930027,39.9609375 L41.3930027,41.4140625 L39.2554348,41.4140625 L39.2554348,39.9609375 Z"/><path id="Shape" d="M45.7839674,42.8671875 L49.3957201,42.8671875 C49.8379755,42.8671875 50.1328125,42.5765625 50.1328125,42.140625 L50.1328125,39.234375 C50.1328125,38.7984375 49.8379755,38.5078125 49.3957201,38.5078125 L45.7839674,38.5078125 C45.341712,38.5078125 45.046875,38.7984375 45.046875,39.234375 L45.046875,42.140625 C45.046875,42.5765625 45.4154212,42.8671875 45.7839674,42.8671875 Z M46.5210598,39.9609375 L48.6586277,39.9609375 L48.6586277,41.4140625 L46.5210598,41.4140625 L46.5210598,39.9609375 Z"/><path id="Shape" d="M38.5183424,23.9765625 L42.1300951,23.9765625 C42.5723505,23.9765625 42.8671875,23.6859375 42.8671875,23.25 L42.8671875,20.34375 C42.8671875,19.9078125 42.5723505,19.6171875 42.1300951,19.6171875 L38.5183424,19.6171875 C38.076087,19.6171875 37.78125,19.9078125 37.78125,20.34375 L37.78125,23.25 C37.78125,23.6132812 38.076087,23.9765625 38.5183424,23.9765625 Z M39.2554348,20.9976562 L41.3930027,20.9976562 L41.3930027,22.4507812 L39.2554348,22.4507812 L39.2554348,20.9976562 Z"/><path id="Shape" d="M45.7839674,23.9765625 L49.3957201,23.9765625 C49.8379755,23.9765625 50.1328125,23.6859375 50.1328125,23.25 L50.1328125,20.34375 C50.1328125,19.9078125 49.8379755,19.6171875 49.3957201,19.6171875 L45.7839674,19.6171875 C45.341712,19.6171875 45.046875,19.9078125 45.046875,20.34375 L45.046875,23.25 C45.046875,23.6132812 45.4154212,23.9765625 45.7839674,23.9765625 Z M46.5210598,20.9976562 L48.6586277,20.9976562 L48.6586277,22.4507812 L46.5210598,22.4507812 L46.5210598,20.9976562 Z"/><path id="Shape" d="M0.730458277,47.2265625 L19.941511,47.2265625 C19.941511,47.2265625 19.941511,47.2265625 19.941511,47.2265625 C19.941511,47.2265625 19.941511,47.2265625 19.941511,47.2265625 L34.5506765,47.2265625 L53.7617292,47.2265625 C54.2000042,47.2265625 54.4921875,46.937494 54.4921875,46.5038913 L54.4921875,16.3685025 C54.4921875,15.9348998 54.2000042,15.6458313 53.7617292,15.6458313 L35.2811348,15.6458313 L35.2811348,5.23936615 C35.2811348,5.23936615 35.2811348,5.16709903 35.2811348,5.16709903 C35.2811348,5.09483191 35.2811348,5.09483191 35.2811348,5.0225648 C35.2811348,4.95029768 35.2811348,4.95029768 35.208089,4.87803056 C35.208089,4.80576344 35.1350431,4.80576344 35.1350431,4.73349632 C35.1350431,4.6612292 35.0619973,4.6612292 34.9889515,4.6612292 C34.9889515,4.6612292 34.9889515,4.58896208 34.9159057,4.58896208 L27.5382771,0.108400679 C27.3191396,-0.0361335597 27.0269563,-0.0361335597 26.8078188,0.108400679 L19.5762818,4.58896208 C19.5762818,4.58896208 19.503236,4.6612292 19.503236,4.6612292 C19.4301902,4.6612292 19.4301902,4.73349632 19.4301902,4.73349632 C19.4301902,4.73349632 19.3571444,4.80576344 19.3571444,4.87803056 C19.3571444,4.95029768 19.2840985,4.95029768 19.2840985,5.0225648 C19.2840985,5.09483191 19.2840985,5.09483191 19.2840985,5.16709903 C19.2840985,5.16709903 19.2840985,5.23936615 19.2840985,5.23936615 L19.2840985,15.7180985 L0.730458277,15.7180985 C0.292183311,15.7180985 0,16.0071669 0,16.4407697 L0,46.5761584 C0,46.937494 0.292183311,47.2265625 0.730458277,47.2265625 Z M29.5105144,42.5291997 L25.0547189,42.5291997 L25.0547189,34.5075495 L29.5105144,34.5075495 L29.5105144,42.5291997 Z M30.2409727,33.0622071 L24.3242606,33.0622071 C23.8859857,33.0622071 23.5938024,33.3512756 23.5938024,33.7848783 L23.5938024,42.5291997 L20.6719693,42.5291997 L20.6719693,24.4624199 L33.8202182,24.4624199 L33.8202182,42.5291997 L30.8983851,42.5291997 L30.8983851,33.7848783 C30.971431,33.4235427 30.6062018,33.0622071 30.2409727,33.0622071 Z M33.8202182,23.0893446 L20.6719693,23.0893446 L20.6719693,5.96203735 L33.8202182,5.96203735 L33.8202182,23.0893446 Z M20.6719693,43.9745421 L33.8202182,43.9745421 L33.8202182,45.7812201 L20.6719693,45.7812201 L20.6719693,43.9745421 Z M53.0312709,17.0911737 L53.0312709,45.7812201 L35.2811348,45.7812201 L35.2811348,17.0911737 L53.0312709,17.0911737 Z M27.1730479,1.62601019 L31.9210267,4.51669496 L22.4250691,4.51669496 L27.1730479,1.62601019 Z M1.46091655,17.0911737 L19.2110527,17.0911737 L19.2110527,45.7812201 L1.46091655,45.7812201 L1.46091655,17.0911737 Z"/><path id="Shape" d="M26.1293403,14.3330966 L26.1293403,17.0103693 C25.770544,16.7285511 25.4835069,16.3058239 25.4835069,15.8830966 C25.4835069,15.4603693 25.1964699,15.1785511 24.7659144,15.1785511 C24.3353588,15.1785511 24.0483218,15.4603693 24.0483218,15.8830966 C24.0483218,17.1512784 24.9094329,18.2080966 26.1293403,18.5603693 L26.1293403,18.912642 C26.1293403,19.3353693 26.4163773,19.6171875 26.8469329,19.6171875 C27.2774884,19.6171875 27.5645255,19.3353693 27.5645255,18.912642 L27.5645255,18.6308239 C28.8561921,18.3490057 29.7890625,17.221733 29.7890625,15.8830966 C29.7890625,14.5444602 28.8561921,13.4171875 27.5645255,13.1353693 L27.5645255,10.4580966 C27.995081,10.6694602 28.2821181,11.162642 28.2821181,11.6558239 C28.2821181,12.0785511 28.5691551,12.3603693 28.9997106,12.3603693 C29.4302662,12.3603693 29.7173032,12.0785511 29.7173032,11.6558239 C29.7173032,10.3171875 28.7844329,9.26036932 27.5645255,8.97855114 L27.5645255,8.69673295 C27.5645255,8.27400568 27.2774884,7.9921875 26.8469329,7.9921875 C26.4163773,7.9921875 26.1293403,8.27400568 26.1293403,8.69673295 L26.1293403,8.97855114 C24.9094329,9.26036932 23.9765625,10.387642 23.9765625,11.6558239 C23.9765625,12.9240057 24.9094329,13.9808239 26.1293403,14.3330966 Z M28.4256366,15.812642 C28.4256366,16.3762784 28.0668403,16.8694602 27.6362847,17.0808239 L27.6362847,14.5444602 C28.0668403,14.8262784 28.4256366,15.2490057 28.4256366,15.812642 Z M26.1293403,10.387642 L26.1293403,12.7830966 C25.6987847,12.571733 25.4117477,12.0785511 25.4117477,11.5853693 C25.4117477,11.0921875 25.770544,10.6694602 26.1293403,10.387642 Z"/></g></g></g></g></svg>