<?xml version="1.0" encoding="UTF-8"?>
<svg width="27px" height="27px" viewBox="0 0 27 27" version="1.1" xmlns="http://www.w3.org/2000/svg" xmlns:xlink="http://www.w3.org/1999/xlink">
    <!-- Generator: Sketch 48.2 (47327) - http://www.bohemiancoding.com/sketch -->
    <title>Avatar</title>
    <desc>Created with Sketch.</desc>
    <defs>
        <path d="M14,23.6 C10.6666667,23.6 7.72,21.8933333 6,19.3333333 C6.04,16.6666667 11.3333333,15.2 14,15.2 C16.6666667,15.2 21.96,16.6666667 22,19.3333333 C20.28,21.8933333 17.3333333,23.6 14,23.6 Z M14,4.66666667 C16.209139,4.66666667 18,6.45752767 18,8.66666667 C18,10.8758057 16.209139,12.6666667 14,12.6666667 C11.790861,12.6666667 10,10.8758057 10,8.66666667 C10,6.45752767 11.790861,4.66666667 14,4.66666667 Z M14,0.666666667 C6.63620334,0.666666667 0.666666667,6.63620334 0.666666667,14 C0.666666667,17.5362199 2.07142454,20.9276054 4.57190958,23.4280904 C7.07239463,25.9285755 10.4637801,27.3333333 14,27.3333333 C17.5362199,27.3333333 20.9276054,25.9285755 23.4280904,23.4280904 C25.9285755,20.9276054 27.3333333,17.5362199 27.3333333,14 C27.3333333,6.62666667 21.3333333,0.666666667 14,0.666666667 Z" id="path-1"></path>
    </defs>
    <g id="Matador-top-bar-menu" stroke="none" stroke-width="1" fill="none" fill-rule="evenodd" transform="translate(-1581.000000, -29.000000)">
        <g id="top-bar-menu">
            <g id="balance" transform="translate(1580.666667, 28.666667)">
                <g id="Avatar" transform="translate(-0.000000, -0.000000)">
                    <mask id="mask-2" fill="white">
                        <use xlink:href="#path-1"></use>
                    </mask>
                    <use id="Shape" fill="#000000" fill-rule="nonzero" xlink:href="#path-1"></use>
                    <g id="1.-Colors/Gray-1" mask="url(#mask-2)" fill="#ECEFF1">
                        <g transform="translate(-2.000000, -2.000000)" id="Gray-85">
                            <rect x="0" y="0" width="32" height="32"></rect>
                        </g>
                    </g>
                </g>
            </g>
        </g>
    </g>
</svg>