<?xml version="1.0" encoding="UTF-8"?>
<svg width="24px" height="24px" viewBox="0 0 24 24" version="1.1" xmlns="http://www.w3.org/2000/svg" xmlns:xlink="http://www.w3.org/1999/xlink">
    <!-- Generator: Sketch 48.2 (47327) - http://www.bohemiancoding.com/sketch -->
    <title>2. Icons/net</title>
    <desc>Created with Sketch.</desc>
    <defs>
        <path d="M11.3956432,10.0623099 C12.1320229,10.0623099 12.7289765,10.6592635 12.7289765,11.3956432 C12.7289765,12.1320229 12.1320229,12.7289765 11.3956432,12.7289765 C10.6592635,12.7289765 10.0623099,12.1320229 10.0623099,11.3956432 C10.0623099,10.6592635 10.6592635,10.0623099 11.3956432,10.0623099 Z M1.02230987,1.02230987 C2.92897653,-0.884356799 7.06230987,-0.0310234659 11.3956432,2.80897653 C15.7289765,-0.0310234659 19.8623099,-0.884356799 21.7689765,1.02230987 C23.6756432,2.92897653 22.8223099,7.06230987 19.9823099,11.3956432 C22.8223099,15.7289765 23.6756432,19.8623099 21.7689765,21.7689765 C19.8623099,23.6756432 15.7289765,22.8223099 11.3956432,19.9823099 C7.06230987,22.8223099 2.92897653,23.6756432 1.02230987,21.7689765 C-0.884356799,19.8623099 -0.0310234659,15.7289765 2.80897653,11.3956432 C-0.0310234659,7.06230987 -0.884356799,2.92897653 1.02230987,1.02230987 Z M16.1156432,6.6756432 C16.9289765,7.50230987 17.6756432,8.34230987 18.3689765,9.18230987 C20.2089765,6.34230987 20.8756432,3.90230987 19.8756432,2.9156432 C18.8889765,1.9156432 16.4489765,2.58230987 13.6089765,4.42230987 C14.4489765,5.1156432 15.2889765,5.86230987 16.1156432,6.6756432 Z M6.6756432,16.1156432 C5.86230987,15.2889765 5.1156432,14.4489765 4.42230987,13.6089765 C2.58230987,16.4489765 1.9156432,18.8889765 2.9156432,19.8756432 C3.90230987,20.8756432 6.34230987,20.2089765 9.18230987,18.3689765 C8.34230987,17.6756432 7.50230987,16.9289765 6.6756432,16.1156432 Z M2.9156432,2.9156432 C1.9156432,3.90230987 2.58230987,6.34230987 4.42230987,9.18230987 C5.1156432,8.34230987 5.86230987,7.50230987 6.6756432,6.6756432 C7.50230987,5.86230987 8.34230987,5.1156432 9.18230987,4.42230987 C6.34230987,2.58230987 3.90230987,1.9156432 2.9156432,2.9156432 Z M8.56897653,14.2223099 C9.50230987,15.1556432 10.4623099,16.0089765 11.3956432,16.7689765 C12.3289765,16.0089765 13.2889765,15.1556432 14.2223099,14.2223099 C15.1556432,13.2889765 16.0089765,12.3289765 16.7689765,11.3956432 C16.0089765,10.4623099 15.1556432,9.50230987 14.2223099,8.56897653 C13.2889765,7.6356432 12.3289765,6.78230987 11.3956432,6.02230987 C10.4623099,6.78230987 9.50230987,7.6356432 8.56897653,8.56897653 C7.6356432,9.50230987 6.78230987,10.4623099 6.02230987,11.3956432 C6.78230987,12.3289765 7.6356432,13.2889765 8.56897653,14.2223099 Z M19.8756432,19.8756432 C20.8756432,18.8889765 20.2089765,16.4489765 18.3689765,13.6089765 C17.6756432,14.4489765 16.9289765,15.2889765 16.1156432,16.1156432 C15.2889765,16.9289765 14.4489765,17.6756432 13.6089765,18.3689765 C16.4489765,20.2089765 18.8889765,20.8756432 19.8756432,19.8756432 Z" id="path-1"></path>
    </defs>
    <g id="Matador-top-bar-menu" stroke="none" stroke-width="1" fill="none" fill-rule="evenodd" transform="translate(-1322.000000, -30.000000)">
        <g id="top-bar-menu">
            <g id="net" transform="translate(1322.666667, 30.666667)">
                <g id="2.-Icons/net" transform="translate(-0.000000, -0.000000)">
                    <mask id="mask-2" fill="white">
                        <use xlink:href="#path-1"></use>
                    </mask>
                    <use id="Shape" fill="#000000" fill-rule="nonzero" xlink:href="#path-1"></use>
                    <g id="1.-Colors/Gray-1" mask="url(#mask-2)" fill="#ECEFF1">
                        <g transform="translate(-4.000000, -4.000000)" id="Gray-85">
                            <rect x="0" y="0" width="32" height="32"></rect>
                        </g>
                    </g>
                </g>
            </g>
        </g>
    </g>
</svg>